<svg width="121" height="170" viewBox="0 0 121 170" fill="none" xmlns="http://www.w3.org/2000/svg">
<defs>
<linearGradient id="paint0_linear_52:80" x1="90.7157" y1="20.4777" x2="-81.8506" y2="167.599" gradientUnits="userSpaceOnUse">
<stop stop-color="#FB939E"/>
<stop offset="1" stop-color="#FCC58B"/>
</linearGradient>
<linearGradient id="paint1_linear_52:80" x1="10.5" y1="0" x2="10.5" y2="130" gradientUnits="userSpaceOnUse">
<stop stop-color="#7F82E3"/>
<stop offset="1" stop-color="#2D31AC" stop-opacity="0"/>
</linearGradient>
<linearGradient id="paint2_linear_52:80" x1="-8.83768" y1="107.97" x2="83.9587" y2="107.97" gradientUnits="userSpaceOnUse">
<stop stop-color="#0E655F"/>
<stop offset="1" stop-color="#22B94D"/>
</linearGradient>
</defs>
<path d="M-8.53364 107.547C-4.39483 117.279 20.8855 104.639 26.3666 100.724C27.8208 99.7169 29.275 98.4864 30.6173 97.3678C31.2884 96.8085 31.8477 96.2492 32.407 95.6899C35.0917 93.229 37.6644 90.4325 40.2372 87.636C40.6847 87.1886 41.1321 86.6293 41.5795 86.1819C44.1523 83.2735 46.7251 80.3652 49.4097 77.5687C49.969 77.0094 50.5283 76.4501 51.0876 75.8908C52.0944 74.884 53.1011 73.8773 54.2197 72.8706C55.4501 71.752 56.6806 70.6334 58.0229 69.6266C58.5822 69.0673 59.2534 68.6199 59.9245 68.1725C62.1617 66.3827 64.3989 64.8167 66.748 63.2506C67.4191 62.8032 67.9784 62.3557 68.6496 62.0202C71.1105 60.4541 73.5714 58.8881 76.0323 57.3221L77.4865 56.4272C80.7305 54.4137 83.9744 52.4002 87.2183 50.3867C87.6658 50.163 88.1132 49.8274 88.5606 49.6037C89.6792 48.8207 90.9097 48.0377 92.0283 47.3665C104.668 38.8652 116.637 27.9029 121 13.3612C113.953 25.6657 101.089 34.3908 87.1065 36.1806C79.8356 37.1873 72.341 36.4043 65.4057 38.8652C57.5755 41.5498 51.6469 47.814 45.0472 52.6239C34.5324 60.2304 27.9326 54.0781 15.8518 58.5525C-5.73714 66.4945 1.75746 82.0431 -1.71019 87.9716C-4.73041 92.1104 -10.7708 102.29 -8.53364 107.547Z" fill="url(#paint0_linear_52:80)"/>
<path opacity="0.37" d="M75.6968 57.2103C75.2493 55.4205 75.2493 51.2817 75.2493 50.6106C75.473 47.5903 76.4798 45.1294 77.3747 42.2211C76.4798 45.2413 76.1442 48.4852 76.4798 51.6173C76.4798 52.0647 77.1509 54.5256 77.1509 56.2035L75.6968 57.2103Z" fill="#FFF7FB"/>
<path opacity="0.37" d="M88.2251 49.4919C88.2251 49.2682 88.1132 49.1563 88.1132 49.0445C87.7776 45.9124 88.1132 42.6685 89.0081 39.6483C88.1132 42.4447 87.1065 45.0175 86.9946 48.0377C86.9946 48.3733 86.9946 49.2682 86.9946 50.3868C87.3302 50.0512 87.7776 49.7156 88.2251 49.4919Z" fill="#FFF7FB"/>
<path opacity="0.37" d="M68.3142 61.9083C68.0905 60.1186 67.643 58.3288 67.643 57.8814C67.3075 54.0782 67.643 50.1631 68.6498 46.5836C67.643 50.0512 66.4126 52.9596 66.1889 56.6509C66.1889 57.3221 66.077 60.7897 66.4126 63.2507C67.0837 62.6914 67.7549 62.3558 68.3142 61.9083Z" fill="#FFF7FB"/>
<path opacity="0.37" d="M57.7992 69.5147C58.3585 68.9554 59.0297 68.508 59.7008 68.0606C59.4771 66.2708 59.0297 64.4811 59.0297 64.0336C58.5822 60.2304 59.0297 56.3153 60.0364 52.7358C59.0297 56.2034 57.7992 59.1118 57.5755 62.8032C57.4636 63.3625 57.4637 67.0538 57.7992 69.5147Z" fill="#FFF7FB"/>
<path opacity="0.37" d="M49.2977 77.5687C49.857 77.0094 50.4163 76.4501 50.9756 75.8908C50.9756 73.8773 50.1926 71.1927 50.1926 70.6334C49.857 66.8301 50.1926 62.915 51.1993 59.3355C50.1926 62.8032 48.9622 65.7115 48.7384 69.4029C48.6266 70.1859 48.6266 75.4433 49.2977 77.5687Z" fill="#FFF7FB"/>
<path opacity="0.37" d="M40.2373 87.6361C39.2306 86.4057 39.3424 79.6941 39.3424 78.7992C39.5662 75.2197 40.7966 72.1995 41.8034 68.7318C40.6848 72.4232 40.3492 76.2264 40.7966 80.0297C40.9085 80.589 41.8034 84.0566 41.5796 86.1819L40.2373 87.6361Z" fill="#FFF7FB"/>
<path opacity="0.37" d="M30.6173 97.2561C29.7224 95.1308 29.7224 88.1955 29.8343 87.0769C30.058 82.7143 31.624 79.2467 32.8545 75.2198C31.5121 79.5823 31.1766 84.1685 31.624 88.6429C31.7359 89.3141 32.6307 93.1173 32.5189 95.5782L30.6173 97.2561Z" fill="#FFF7FB"/>
<path d="M-42.1054 130C-36.4691 116.793 -29.8487 104.036 -22.3336 91.8176C-22.2441 91.7277 -22.1547 91.6379 -22.0652 91.548C-22.1547 92.0871 -22.2441 91.009 -22.0652 91.548C-17.2341 89.0325 -12.403 92.3566 -7.30351 93.1652C-0.235783 94.2433 7.27926 92.3566 13.005 87.9544C18.7308 83.642 22.6672 76.9039 23.6513 69.8065C20.1622 74.029 14.5259 75.8258 9.15803 76.7243C3.79013 77.6227 -1.84615 77.7125 -7.03511 79.4195C-9.54013 80.2281 -15.1764 83.103 -18.755 86.5169C-18.6656 86.3372 -18.5761 86.0677 -18.4866 85.888C-16.3395 82.5639 -14.1923 79.3296 -11.8662 76.0954C-6.85619 68.9081 -1.48829 61.9903 4.14799 55.3421C1.19565 62.709 16.7625 63.6075 22.9356 61.0021C29.6455 58.1272 35.0134 52.1976 37.25 45.19C27.9456 49.6821 17.6572 43.5729 9.06857 49.6821C12.8261 45.4596 16.6731 41.3269 20.699 37.3739C20.699 37.5536 20.7885 37.6434 20.7885 37.8231C21.6831 39.9793 28.9298 38.6316 30.7191 38.2723C38.7709 36.9247 43.1547 32.5225 49.5067 28.2101C46.3754 30.2764 42.439 30.546 38.6814 30.4561C34.9239 30.3663 31.0769 30.0069 27.4983 31.085C27.2299 31.1748 26.9615 31.2647 26.6037 31.4444C29.1982 28.9288 31.8821 26.5031 34.5661 24.1672C34.9239 24.4368 35.3712 24.7063 35.8186 24.886C41.9916 27.5812 50.8487 19.9447 54.4273 15.7222C58.4532 11.0504 61.2266 5.4803 64 0C59.9741 2.60539 55.2324 3.77332 50.5803 5.0311C45.9281 6.28887 41.2759 7.81617 37.6079 10.9606C34.5661 13.6558 31.0769 20.0346 33.8503 23.4485C30.2717 26.5929 26.6931 29.9171 23.2935 33.2412C23.5619 32.792 23.7408 32.2529 24.0092 31.624C26.3353 24.886 26.9615 17.1596 26.8721 10.0622C26.8721 9.16378 26.5142 6.82792 26.5142 6.82792C26.5142 6.82792 24.4565 8.17553 23.9197 8.62474C20.8779 11.4098 17.7467 14.1949 15.51 17.6088C13.2734 21.0228 11.9314 25.3352 12.7366 29.378C13.8102 34.3193 17.3888 37.1942 20.4306 36.0263C11.9314 44.5612 3.8796 53.5453 -3.54599 63.0684C-3.36706 62.7091 -3.09866 62.3497 -2.91973 62.0802C-1.30936 59.924 0.479935 57.8576 2.00084 55.6116C9.15803 44.8307 9.15803 29.7374 2.0903 18.9565C2.89549 20.1244 -1.48829 30.2764 -2.02508 32.0732C-3.27759 36.6551 -4.44063 41.237 -5.51421 45.9088C-6.58779 50.6703 -7.39297 55.4319 -8.19816 60.1935C-8.37709 61.631 -9.98746 68.7284 -8.28762 69.1776C-9.80853 71.2439 -11.3294 73.3103 -12.7609 75.3766C-14.0134 77.1735 -15.2659 78.9703 -16.4289 80.7671C-14.3712 75.2868 -14.0134 69.4471 -13.8344 63.5176C-13.6555 57.0491 -13.3871 50.5805 -13.2082 44.2018C-13.2082 43.2135 -13.4766 33.5107 -13.4766 33.5107C-13.4766 33.5107 -18.2182 42.8542 -18.6656 43.7526C-24.3018 53.3656 -27.5226 64.416 -27.9699 75.5563C-28.1488 79.689 -29.1329 88.6731 -25.4649 91.6379C-24.8386 92.1769 -24.2124 92.3566 -23.6756 92.3566C-31.1012 104.395 -37.5426 116.883 -43 129.641L-42.1054 130Z" fill="url(#paint1_linear_52:80)"/>
<path d="M-8.86945 117.279C-8.86945 110.791 -8.53387 99.7169 -1.03926 93.7883C11.2653 84.0565 28.6036 86.6293 38.4472 90.7681C46.0537 94.012 45.1588 96.5848 51.8704 98.2627C63.6157 101.171 70.7747 94.4594 77.9337 99.0457C80.9539 100.947 84.6453 105.198 83.8623 109.113C80.8421 123.767 54.6669 129.472 31.4001 128.8C13.6144 128.353 -0.368105 122.089 -8.86945 117.279Z" fill="url(#paint2_linear_52:80)"/>
<path d="M83.8624 109.113C80.8422 123.767 54.667 129.471 31.4002 128.8C13.6145 128.353 -0.256106 122.089 -8.75745 117.279C-8.75745 116.831 -8.75745 116.272 -8.75745 115.713C-8.64559 109.113 -7.86257 99.2693 -0.927265 93.9001C11.4892 84.1683 28.7156 86.741 38.5592 90.8799C46.1657 94.1238 45.2708 96.6966 51.9824 98.3745C63.7277 101.283 70.8867 94.5712 78.0457 99.1575C78.2694 99.2693 78.605 99.493 78.8287 99.7168C81.5134 101.73 84.5336 105.533 83.8624 109.113Z" fill="#1A1C6C"/>
<path opacity="0.2" d="M78.7167 99.605C76.5914 103.632 72.9 106.764 68.8731 109.001C58.9176 114.482 46.3893 115.042 36.0982 110.344C33.078 109.001 20.4378 104.303 16.9702 104.303C13.2788 104.303 9.58741 104.974 6.0079 106.093C0.414912 107.994 -4.84249 111.238 -8.86945 115.601C-8.75759 109.001 -7.97457 99.1576 -1.03926 93.7883C11.3772 84.0565 28.6036 86.6293 38.4472 90.7681C46.0537 94.012 45.1588 96.5848 51.8704 98.2627C63.6157 101.171 70.7747 94.4594 77.9337 99.0457C78.1574 99.1576 78.3812 99.3813 78.7167 99.605Z" fill="#6F72D8"/>
<path d="M38.7828 112.021C36.5456 110.567 20.3259 100.724 2.54023 106.988C-14.798 113.14 -22.7401 145.244 -24.418 168.511" stroke="#5A5ED5" stroke-miterlimit="10" stroke-linecap="round" stroke-linejoin="round"/>
</svg>
