<svg width="293" height="165" viewBox="0 0 293 165" fill="none" xmlns="http://www.w3.org/2000/svg">
<rect width="293" height="165" rx="24" fill="#2D73D5"/>
<g clip-path="url(#clip0_52:58)">
<path d="M221.66 55.93C221.66 55.93 216 81.46 219.59 97.19C223.18 112.92 230.17 133.29 238.42 138.45C246.67 143.61 283.47 150.18 283.47 150.18C283.47 150.18 244.86 151.78 229.65 151.26C214.44 150.74 159 152.37 159 152.37C200.31 151 216.81 142.48 219.85 134C222.46 126.75 213 122.38 213 98.22C213 86.13 214.32 78.22 216 71.84C217.404 66.3771 219.298 61.0521 221.66 55.93Z" fill="#233972"/>
<path d="M212.37 17C212.37 17 221.91 25.51 222.43 29.89C222.95 34.27 219.08 48.46 219.08 48.46C219.08 48.46 206.19 43.3 212.37 17Z" fill="#3352AD"/>
<path d="M246.67 32.73C246.67 32.73 245.67 53.36 243.32 55.93C240.97 58.5 227.32 69.09 227.32 69.09C227.32 69.09 218.56 35.31 246.67 32.73Z" fill="#81AEE5"/>
<path d="M186.25 39C186.25 39 203.61 44.76 205.84 50.91C208.07 57.06 210.73 62.72 210.69 67C210.65 71.28 180.23 54.3 186.25 39Z" fill="#3352AD"/>
<path d="M208.76 75.46C208.76 75.46 201 93.58 190 96.6C179 99.62 165.39 91 165.39 91C165.39 91 181.76 68.89 208.76 75.46Z" fill="#6587DE"/>
<path d="M224.24 86.1C224.24 86.1 242.8 91.26 254.53 86.1C266.26 80.94 277.74 63.54 277.74 63.54C277.74 63.54 255.43 61.48 244.74 65.73C234.05 69.98 224.24 86.1 224.24 86.1Z" fill="#96C3FA"/>
<path d="M225.65 96.42C225.65 96.42 232.36 111.5 237.51 114.42C242.66 117.34 253.51 117.64 258.27 113.77C263.03 109.9 251.82 100.54 242 97.32C232.18 94.1 225.65 96.42 225.65 96.42Z" fill="#A1CBFF"/>
</g>
<defs>
<clipPath id="clip0_52:58">
<rect width="124.47" height="135.37" fill="white" transform="translate(159 17)"/>
</clipPath>
</defs>
</svg>
