<svg width="293" height="165" viewBox="0 0 293 165" fill="none" xmlns="http://www.w3.org/2000/svg">
<defs>
<filter id="filter0_dd_52:36" x="-21.5706" y="29" width="408.602" height="186" filterUnits="userSpaceOnUse" color-interpolation-filters="sRGB">
<feFlood flood-opacity="0" result="BackgroundImageFix"/>
<feColorMatrix in="SourceAlpha" type="matrix" values="0 0 0 0 0 0 0 0 0 0 0 0 0 0 0 0 0 0 127 0" result="hardAlpha"/>
<feOffset dy="4"/>
<feGaussianBlur stdDeviation="2"/>
<feComposite in2="hardAlpha" operator="out"/>
<feColorMatrix type="matrix" values="0 0 0 0 0 0 0 0 0 0 0 0 0 0 0 0 0 0 0.25 0"/>
<feBlend mode="normal" in2="BackgroundImageFix" result="effect1_dropShadow_52:36"/>
<feColorMatrix in="SourceAlpha" type="matrix" values="0 0 0 0 0 0 0 0 0 0 0 0 0 0 0 0 0 0 127 0" result="hardAlpha"/>
<feOffset dy="4"/>
<feGaussianBlur stdDeviation="2"/>
<feComposite in2="hardAlpha" operator="out"/>
<feColorMatrix type="matrix" values="0 0 0 0 0 0 0 0 0 0 0 0 0 0 0 0 0 0 0.25 0"/>
<feBlend mode="normal" in2="effect1_dropShadow_52:36" result="effect2_dropShadow_52:36"/>
<feBlend mode="normal" in="SourceGraphic" in2="effect2_dropShadow_52:36" result="shape"/>
</filter>
<linearGradient id="paint0_linear_52:36" x1="67.46" y1="64" x2="278.459" y2="81.0111" gradientUnits="userSpaceOnUse">
<stop stop-color="white" stop-opacity="0.63"/>
<stop offset="0.984" stop-color="white"/>
</linearGradient>
<linearGradient id="paint1_linear_52:36" x1="37.3616" y1="146.875" x2="246.281" y2="112.777" gradientUnits="userSpaceOnUse">
<stop stop-color="white"/>
<stop offset="0.984" stop-color="white"/>
</linearGradient>
</defs>
<rect width="293" height="165" rx="24" fill="#44AFE3"/>
<mask id="mask0_52:36" style="mask-type:alpha" maskUnits="userSpaceOnUse" x="0" y="0" width="293" height="165">
<rect width="293" height="165" rx="24" fill="#44AFE3"/>
</mask>
<g mask="url(#mask0_52:36)">
<g filter="url(#filter0_dd_52:36)">
<path opacity="0.1" d="M74.66 84.3546C104.76 83.9546 109.26 58.8546 143.36 55.3546C163.66 53.2546 163.86 61.9546 189.86 62.2546C230.46 62.6546 237.16 41.5546 263.76 46.8546C289.86 52.0546 293.26 74.3546 322.86 76.8546C335.36 77.8546 339.46 74.3546 351.06 77.5546C365.26 81.5546 381.06 93.0546 382.86 105.955C385.66 126.255 353.66 146.655 325.26 146.655C296.76 146.555 290.96 125.855 262.96 125.055C228.16 124.055 221.86 155.355 188.96 154.755C157.96 154.255 154.76 126.255 112.36 115.255C68.76 104.055 30.26 111.755 0.459961 106.155C44.46 75.6546 52.06 84.7546 74.66 84.3546Z" fill="url(#paint0_linear_52:36)"/>
<path opacity="0.1" d="M49.2339 164.908C78.3592 157.3 76.707 131.853 108.972 120.276C128.175 113.367 130.457 121.766 155.769 115.82C195.28 106.47 196.723 84.3785 223.818 83.1432C250.403 81.9307 259.053 102.764 288.389 98.0909C300.763 96.0633 303.904 91.682 315.933 92.0061C330.678 92.4831 348.775 99.8574 353.617 111.949C361.205 130.985 335.032 158.465 307.462 165.277C279.77 172.017 269.174 153.312 241.799 159.252C207.775 166.629 209.167 198.526 177.084 205.835C146.869 212.786 137.046 186.371 93.2453 185.863C48.2316 185.448 12.7027 202.158 -17.5706 203.87C17.8287 163.706 27.3897 170.718 49.2339 164.908Z" fill="url(#paint1_linear_52:36)"/>
</g>
<!-- <path d="M23.5449 140.135C25.2734 140.135 26.5156 138.945 26.5156 137.275C26.5156 135.658 25.332 134.475 23.7207 134.475C22.8594 134.475 22.0918 134.826 21.6641 135.447H21.6465L21.9805 132.26H26.0059V131.545H21.3184L20.8613 136.285H21.582C22.0098 135.553 22.7305 135.166 23.5918 135.166C24.8164 135.166 25.7129 136.068 25.7129 137.293C25.7129 138.535 24.8164 139.426 23.5566 139.426C22.4668 139.426 21.6055 138.746 21.4941 137.797H20.709C20.8145 139.162 21.998 140.135 23.5449 140.135ZM29.7951 135.535C29.7951 136.379 30.34 136.889 31.5002 137.158L32.4142 137.375C33.2345 137.574 33.5334 137.867 33.5334 138.395C33.5334 139.033 32.9298 139.461 32.0158 139.461C31.1017 139.461 30.5099 139.021 30.3927 138.254H29.6193C29.7248 139.367 30.6388 140.1 32.0158 140.1C33.3459 140.1 34.3127 139.367 34.3127 138.336C34.3127 137.475 33.8556 137.006 32.6369 136.713L31.717 136.496C30.9084 136.303 30.5627 135.992 30.5627 135.494C30.5627 134.885 31.131 134.445 31.963 134.445C32.8068 134.445 33.3576 134.908 33.4572 135.67H34.2013C34.131 134.562 33.2638 133.807 31.963 133.807C30.6916 133.807 29.7951 134.527 29.7951 135.535ZM35.6096 132.383V133.906H34.7014V134.551H35.6096V138.5C35.6096 139.602 36.0198 140.035 37.0393 140.035C37.2034 140.035 37.5315 140.018 37.6135 140V139.338C37.5666 139.35 37.2737 139.361 37.1916 139.361C36.6291 139.361 36.383 139.092 36.383 138.465V134.551H37.5842V133.906H36.383V132.383H35.6096ZM40.803 134.486C41.9046 134.486 42.637 135.324 42.6546 136.525H38.8929C38.9573 135.324 39.7132 134.486 40.803 134.486ZM42.6077 138.271C42.4378 138.939 41.7991 139.42 40.8792 139.42C39.6663 139.42 38.887 138.564 38.887 137.188V137.141H43.4515V136.812C43.4515 134.996 42.432 133.807 40.8148 133.807C39.1624 133.807 38.0902 135.078 38.0902 136.971C38.0902 138.904 39.1507 140.1 40.8616 140.1C42.2034 140.1 43.1937 139.326 43.3753 138.271H42.6077ZM47.2621 133.807C46.2719 133.807 45.4984 134.387 45.1645 135.195H45.141V133.906H44.4086V142.016H45.182V138.746H45.2055C45.5277 139.537 46.2953 140.1 47.2797 140.1C48.809 140.1 49.8578 138.852 49.8578 136.953C49.8578 135.061 48.8031 133.807 47.2621 133.807ZM47.1273 139.414C45.973 139.414 45.182 138.424 45.182 136.953C45.182 135.488 45.973 134.492 47.1273 134.492C48.3051 134.492 49.0668 135.471 49.0668 136.953C49.0668 138.441 48.3051 139.414 47.1273 139.414ZM50.6977 135.535C50.6977 136.379 51.2427 136.889 52.4028 137.158L53.3169 137.375C54.1372 137.574 54.436 137.867 54.436 138.395C54.436 139.033 53.8325 139.461 52.9184 139.461C52.0044 139.461 51.4126 139.021 51.2954 138.254H50.522C50.6274 139.367 51.5415 140.1 52.9184 140.1C54.2485 140.1 55.2153 139.367 55.2153 138.336C55.2153 137.475 54.7583 137.006 53.5395 136.713L52.6196 136.496C51.811 136.303 51.4653 135.992 51.4653 135.494C51.4653 134.885 52.0337 134.445 52.8657 134.445C53.7095 134.445 54.2602 134.908 54.3598 135.67H55.104C55.0337 134.562 54.1665 133.807 52.8657 133.807C51.5942 133.807 50.6977 134.527 50.6977 135.535Z" fill="white"/>
<path opacity="0.8" d="M25.3516 79V68.9922H28.9062V67.7266H20.3906V68.9922H23.9453V79H25.3516ZM35.0059 70.875H33.6466V75.6484C33.6466 77.0312 32.8497 77.9375 31.5294 77.9375C30.2716 77.9375 29.6544 77.2266 29.6544 75.9062V70.875H28.295V76.1484C28.295 77.9922 29.3341 79.1406 31.1075 79.1406C32.3575 79.1406 33.2013 78.6172 33.6856 77.6797H33.7169V79H35.0059V70.875ZM36.6916 79H38.0509V73.9375C38.0509 72.7891 38.7384 72.0312 39.7931 72.0312C40.1213 72.0312 40.4103 72.0703 40.5197 72.1094V70.7891C40.4103 70.7734 40.2072 70.7344 39.9728 70.7344C39.0197 70.7344 38.2697 71.3047 38.0041 72.2031H37.9728V70.875H36.6916V79ZM41.5491 79H42.9084V74.2188C42.9084 72.8438 43.7444 71.9375 45.0256 71.9375C46.2756 71.9375 46.8928 72.6562 46.8928 73.9688V79H48.2522V73.7266C48.2522 71.8828 47.2209 70.7344 45.4397 70.7344C44.1819 70.7344 43.3147 71.2969 42.8616 72.1719H42.8303V70.875H41.5491V79ZM56.1859 79.1406C57.3578 79.1406 58.2875 78.5625 58.8109 77.625H58.8344V79H60.1312V67.7266H58.7719V72.1953H58.7406C58.2562 71.3047 57.3187 70.7344 56.1547 70.7344C54.1078 70.7344 52.7094 72.3906 52.7094 74.9375C52.7094 77.4844 54.1156 79.1406 56.1859 79.1406ZM56.4437 71.9297C57.8422 71.9297 58.7797 73.125 58.7797 74.9375C58.7797 76.7578 57.8422 77.9453 56.4437 77.9453C55.0062 77.9453 54.1 76.7812 54.1 74.9375C54.1 73.1016 55.0062 71.9297 56.4437 71.9297ZM65.2544 79.1406C67.4966 79.1406 69.0122 77.5234 69.0122 74.9375C69.0122 72.3438 67.4966 70.7344 65.2544 70.7344C63.0044 70.7344 61.4888 72.3438 61.4888 74.9375C61.4888 77.5234 63.0044 79.1406 65.2544 79.1406ZM65.2544 77.9453C63.8169 77.9453 62.8716 76.8516 62.8716 74.9375C62.8716 73.0234 63.8169 71.9297 65.2544 71.9297C66.6919 71.9297 67.6294 73.0234 67.6294 74.9375C67.6294 76.8516 66.6919 77.9453 65.2544 77.9453ZM80.6431 70.875H79.2994L77.6744 77.4844H77.6431L75.7994 70.875H74.4869L72.6509 77.4844H72.6197L70.9947 70.875H69.6431L71.9166 79H73.2994L75.1275 72.7109H75.1587L76.9947 79H78.3775L80.6431 70.875ZM81.6803 79H83.0397V74.2188C83.0397 72.8438 83.8756 71.9375 85.1569 71.9375C86.4069 71.9375 87.0241 72.6562 87.0241 73.9688V79H88.3834V73.7266C88.3834 71.8828 87.3522 70.7344 85.5709 70.7344C84.3131 70.7344 83.4459 71.2969 82.9928 72.1719H82.9616V70.875H81.6803V79ZM93.6766 68.9141V70.875H92.4656V71.9922H93.6766V76.8906C93.6766 78.4531 94.2547 79.0625 95.7469 79.0625C96.0672 79.0625 96.4422 79.0391 96.6062 79V77.8594C96.5125 77.875 96.2 77.8984 96.0437 77.8984C95.3484 77.8984 95.0359 77.5625 95.0359 76.8203V71.9922H96.6141V70.875H95.0359V68.9141H93.6766ZM98.0575 79H99.4169V74.2656C99.4169 72.8594 100.253 71.9375 101.604 71.9375C102.878 71.9375 103.526 72.7109 103.526 74V79H104.886V73.75C104.886 71.9375 103.808 70.7344 102.026 70.7344C100.792 70.7344 99.9013 71.2656 99.4481 72.1719H99.4169V67.7266H98.0575V79ZM109.79 71.9141C111.071 71.9141 111.923 72.8828 111.954 74.2422H107.54C107.626 72.8906 108.517 71.9141 109.79 71.9141ZM111.923 76.6719C111.696 77.4375 110.938 77.9609 109.907 77.9609C108.446 77.9609 107.532 76.9375 107.532 75.3828V75.3047H113.36V74.7891C113.36 72.3281 112.009 70.7344 109.813 70.7344C107.571 70.7344 106.134 72.4453 106.134 74.9688C106.134 77.5234 107.548 79.1406 109.876 79.1406C111.649 79.1406 113.024 78.0938 113.259 76.6719H111.923ZM117.716 73.1172C117.716 74.2891 118.458 75 119.989 75.3672L121.278 75.6797C122.208 75.9062 122.528 76.2422 122.528 76.8281C122.528 77.5625 121.849 78.0312 120.747 78.0312C119.646 78.0312 119.021 77.5859 118.857 76.6562H117.497C117.653 78.1797 118.841 79.1406 120.747 79.1406C122.56 79.1406 123.896 78.1406 123.896 76.7266C123.896 75.5625 123.302 74.9219 121.661 74.5234L120.372 74.2109C119.466 73.9922 119.052 73.6094 119.052 73.0469C119.052 72.3359 119.708 71.8438 120.7 71.8438C121.7 71.8438 122.325 72.3672 122.427 73.2188H123.724C123.669 71.7812 122.482 70.7344 120.7 70.7344C118.942 70.7344 117.716 71.7266 117.716 73.1172ZM125.667 68.9141V70.875H124.456V71.9922H125.667V76.8906C125.667 78.4531 126.245 79.0625 127.738 79.0625C128.058 79.0625 128.433 79.0391 128.597 79V77.8594C128.503 77.875 128.191 77.8984 128.034 77.8984C127.339 77.8984 127.027 77.5625 127.027 76.8203V71.9922H128.605V70.875H127.027V68.9141H125.667ZM129.978 79H131.337V73.9375C131.337 72.7891 132.025 72.0312 133.079 72.0312C133.408 72.0312 133.697 72.0703 133.806 72.1094V70.7891C133.697 70.7734 133.493 70.7344 133.259 70.7344C132.306 70.7344 131.556 71.3047 131.29 72.2031H131.259V70.875H129.978V79ZM137.702 71.9141C138.984 71.9141 139.835 72.8828 139.867 74.2422H135.452C135.538 72.8906 136.429 71.9141 137.702 71.9141ZM139.835 76.6719C139.609 77.4375 138.851 77.9609 137.82 77.9609C136.359 77.9609 135.445 76.9375 135.445 75.3828V75.3047H141.273V74.7891C141.273 72.3281 139.921 70.7344 137.726 70.7344C135.484 70.7344 134.046 72.4453 134.046 74.9688C134.046 77.5234 135.46 79.1406 137.788 79.1406C139.562 79.1406 140.937 78.0938 141.171 76.6719H139.835ZM142.427 73.1172C142.427 74.2891 143.169 75 144.701 75.3672L145.99 75.6797C146.919 75.9062 147.24 76.2422 147.24 76.8281C147.24 77.5625 146.56 78.0312 145.458 78.0312C144.357 78.0312 143.732 77.5859 143.568 76.6562H142.208C142.365 78.1797 143.552 79.1406 145.458 79.1406C147.271 79.1406 148.607 78.1406 148.607 76.7266C148.607 75.5625 148.013 74.9219 146.372 74.5234L145.083 74.2109C144.177 73.9922 143.763 73.6094 143.763 73.0469C143.763 72.3359 144.419 71.8438 145.412 71.8438C146.412 71.8438 147.037 72.3672 147.138 73.2188H148.435C148.38 71.7812 147.193 70.7344 145.412 70.7344C143.654 70.7344 142.427 71.7266 142.427 73.1172ZM149.8 73.1172C149.8 74.2891 150.542 75 152.074 75.3672L153.363 75.6797C154.292 75.9062 154.613 76.2422 154.613 76.8281C154.613 77.5625 153.933 78.0312 152.832 78.0312C151.73 78.0312 151.105 77.5859 150.941 76.6562H149.582C149.738 78.1797 150.925 79.1406 152.832 79.1406C154.644 79.1406 155.98 78.1406 155.98 76.7266C155.98 75.5625 155.386 74.9219 153.746 74.5234L152.457 74.2109C151.55 73.9922 151.136 73.6094 151.136 73.0469C151.136 72.3359 151.792 71.8438 152.785 71.8438C153.785 71.8438 154.41 72.3672 154.511 73.2188H155.808C155.753 71.7812 154.566 70.7344 152.785 70.7344C151.027 70.7344 149.8 71.7266 149.8 73.1172ZM27.5469 88.875H26.1328L23.8828 95.5547H23.8516L21.6094 88.875H20.1797L23.1719 97H24.5625L27.5469 88.875ZM31.67 97.1406C33.9122 97.1406 35.4278 95.5234 35.4278 92.9375C35.4278 90.3438 33.9122 88.7344 31.67 88.7344C29.42 88.7344 27.9044 90.3438 27.9044 92.9375C27.9044 95.5234 29.42 97.1406 31.67 97.1406ZM31.67 95.9453C30.2325 95.9453 29.2872 94.8516 29.2872 92.9375C29.2872 91.0234 30.2325 89.9297 31.67 89.9297C33.1075 89.9297 34.045 91.0234 34.045 92.9375C34.045 94.8516 33.1075 95.9453 31.67 95.9453ZM36.7931 97H38.1525V85.7266H36.7931V97ZM46.5803 88.875H45.2209V93.6484C45.2209 95.0312 44.4241 95.9375 43.1038 95.9375C41.8459 95.9375 41.2288 95.2266 41.2288 93.9062V88.875H39.8694V94.1484C39.8694 95.9922 40.9084 97.1406 42.6819 97.1406C43.9319 97.1406 44.7756 96.6172 45.26 95.6797H45.2913V97H46.5803V88.875ZM48.2659 97H49.6253V91.9062C49.6253 90.7812 50.4066 89.9375 51.4847 89.9375C52.4925 89.9375 53.1488 90.5781 53.1488 91.5547V97H54.5081V91.8359C54.5081 90.7344 55.2659 89.9375 56.3441 89.9375C57.4144 89.9375 58.0316 90.5938 58.0316 91.7031V97H59.3909V91.3906C59.3909 89.7812 58.3519 88.7344 56.7425 88.7344C55.6019 88.7344 54.6488 89.3125 54.1956 90.2812H54.1644C53.8128 89.2969 52.9925 88.7344 51.8831 88.7344C50.7894 88.7344 49.9613 89.3125 49.5784 90.1719H49.5472V88.875H48.2659V97ZM64.3031 89.9141C65.5844 89.9141 66.4359 90.8828 66.4672 92.2422H62.0531C62.1391 90.8906 63.0297 89.9141 64.3031 89.9141ZM66.4359 94.6719C66.2094 95.4375 65.4516 95.9609 64.4203 95.9609C62.9594 95.9609 62.0453 94.9375 62.0453 93.3828V93.3047H67.8734V92.7891C67.8734 90.3281 66.5219 88.7344 64.3266 88.7344C62.0844 88.7344 60.6469 90.4453 60.6469 92.9688C60.6469 95.5234 62.0609 97.1406 64.3891 97.1406C66.1625 97.1406 67.5375 96.0938 67.7719 94.6719H66.4359Z" fill="white"/>
<path d="M34.6289 47H38.3477L31.3477 27.2715H27.3691L20.3691 47H24.0059L25.6875 41.9004H32.9473L34.6289 47ZM29.2695 30.7578H29.3652L32.1133 39.1797H26.5078L29.2695 30.7578ZM41.125 47H44.5293V38.6055C44.5293 36.5273 45.7734 35.1191 47.7285 35.1191C49.6699 35.1191 50.627 36.2676 50.627 38.3184V47H54.0312V37.6348C54.0312 34.2852 52.2129 32.2344 49.0137 32.2344C46.7852 32.2344 45.2402 33.2734 44.4609 34.9961H44.3926V32.5078H41.125V47ZM63.4258 41.8047L66.4336 47H70.1523L65.5449 39.6719L70.207 32.5078H66.4746L63.5898 37.5938H63.5215L60.5957 32.5078H56.7676L61.4023 39.7676L56.7266 47H60.3496L63.3574 41.8047H63.4258ZM73.0391 47H76.4434V32.5078H73.0391V47ZM74.7207 30.3203C75.7734 30.3203 76.5938 29.4863 76.5938 28.4746C76.5938 27.4492 75.7734 26.6289 74.7207 26.6289C73.6953 26.6289 72.8613 27.4492 72.8613 28.4746C72.8613 29.4863 73.6953 30.3203 74.7207 30.3203ZM86.5488 34.8457C88.5039 34.8457 89.8164 36.2812 89.8848 38.332H83.1172C83.2539 36.3086 84.6348 34.8457 86.5488 34.8457ZM89.8984 42.666C89.5293 43.8691 88.3262 44.6621 86.7402 44.6621C84.5117 44.6621 83.0898 43.1035 83.0898 40.7793V40.5742H93.2207V39.4668C93.2207 35.0645 90.6504 32.207 86.5352 32.207C82.3516 32.207 79.6992 35.2285 79.6992 39.8086C79.6992 44.4297 82.3242 47.2871 86.6719 47.2871C90.1035 47.2871 92.6465 45.4004 93.084 42.666H89.8984ZM97.3652 29.1172V32.5078H95.2871V35.1328H97.3652V43.1445C97.3652 45.9609 98.5957 47.0684 101.727 47.0684C102.451 47.0684 103.121 47.0137 103.49 46.9316V44.334C103.271 44.375 102.834 44.4023 102.52 44.4023C101.316 44.4023 100.77 43.8555 100.77 42.666V35.1328H103.504V32.5078H100.77V29.1172H97.3652ZM108.455 52.3867C111.764 52.3867 113.363 51.1699 114.594 47.5742L119.844 32.5078H116.262L112.844 44.1016H112.775L109.371 32.5078H105.652L110.807 47.0137C110.82 47.0547 110.602 47.7793 110.602 47.8203C110.232 49.1602 109.508 49.6934 108.1 49.6934C107.895 49.6934 107.293 49.6797 107.115 49.6387V52.332C107.293 52.373 108.25 52.3867 108.455 52.3867Z" fill="white"/> -->
</g>
</svg>
