<svg width="375" height="812" viewBox="0 0 375 812" fill="none" xmlns="http://www.w3.org/2000/svg">
<defs>
<filter id="filter0_d_52:262" x="-4" y="0" width="383" height="820" filterUnits="userSpaceOnUse" color-interpolation-filters="sRGB">
<feFlood flood-opacity="0" result="BackgroundImageFix"/>
<feColorMatrix in="SourceAlpha" type="matrix" values="0 0 0 0 0 0 0 0 0 0 0 0 0 0 0 0 0 0 127 0" result="hardAlpha"/>
<feOffset dy="4"/>
<feGaussianBlur stdDeviation="2"/>
<feColorMatrix type="matrix" values="0 0 0 0 0 0 0 0 0 0 0 0 0 0 0 0 0 0 0.25 0"/>
<feBlend mode="normal" in2="BackgroundImageFix" result="effect1_dropShadow_52:262"/>
<feBlend mode="normal" in="SourceGraphic" in2="effect1_dropShadow_52:262" result="shape"/>
</filter>
<linearGradient id="paint0_linear_52:262" x1="250.893" y1="337.22" x2="261.313" y2="329.083" gradientUnits="userSpaceOnUse">
<stop stop-color="#9BECE5"/>
<stop offset="1" stop-color="#115757"/>
</linearGradient>
<linearGradient id="paint1_linear_52:262" x1="187" y1="355.5" x2="185.604" y2="573.512" gradientUnits="userSpaceOnUse">
<stop stop-color="#6D71DF"/>
<stop offset="0.749238" stop-color="#2D31AC" stop-opacity="0"/>
</linearGradient>
<linearGradient id="paint2_linear_52:262" x1="205.167" y1="428.453" x2="458.515" y2="428.453" gradientUnits="userSpaceOnUse">
<stop offset="0.0159683" stop-color="white"/>
<stop offset="1" stop-color="white" stop-opacity="0"/>
</linearGradient>
<linearGradient id="paint3_linear_52:262" x1="372.559" y1="334.367" x2="391.024" y2="334.367" gradientUnits="userSpaceOnUse">
<stop stop-color="#9BECE5"/>
<stop offset="1" stop-color="#115757"/>
</linearGradient>
<linearGradient id="paint4_linear_52:262" x1="181.986" y1="321.08" x2="182.57" y2="321.08" gradientUnits="userSpaceOnUse">
<stop offset="0.0159683" stop-color="white"/>
<stop offset="1" stop-color="white" stop-opacity="0"/>
</linearGradient>
<linearGradient id="paint5_linear_52:262" x1="25.2383" y1="169.371" x2="398.767" y2="230.012" gradientUnits="userSpaceOnUse">
<stop stop-color="white" stop-opacity="0"/>
<stop offset="0.984" stop-color="white"/>
</linearGradient>
<linearGradient id="paint6_linear_52:262" x1="128.127" y1="180.46" x2="355.986" y2="180.46" gradientUnits="userSpaceOnUse">
<stop stop-color="white" stop-opacity="0"/>
<stop offset="0.984" stop-color="white"/>
</linearGradient>
<linearGradient id="paint7_linear_52:262" x1="126.756" y1="428.449" x2="-131.054" y2="648.244" gradientUnits="userSpaceOnUse">
<stop stop-color="#FB939E"/>
<stop offset="1" stop-color="#FCC58B"/>
</linearGradient>
<linearGradient id="paint8_linear_52:262" x1="20.9353" y1="358" x2="20.9353" y2="599.817" gradientUnits="userSpaceOnUse">
<stop stop-color="#7F82E3"/>
<stop offset="1" stop-color="#2D31AC" stop-opacity="0"/>
</linearGradient>
<linearGradient id="paint9_linear_52:262" x1="-21.9744" y1="559.16" x2="116.661" y2="559.16" gradientUnits="userSpaceOnUse">
<stop stop-color="#0E655F"/>
<stop offset="1" stop-color="#22B94D"/>
</linearGradient>
<linearGradient id="paint10_linear_52:262" x1="298" y1="510" x2="446.78" y2="662.349" gradientUnits="userSpaceOnUse">
<stop stop-color="#FB939E"/>
<stop offset="0.585015" stop-color="#FCC58B"/>
</linearGradient>
<linearGradient id="paint11_linear_52:262" x1="352.215" y1="493.806" x2="413.749" y2="657.303" gradientUnits="userSpaceOnUse">
<stop stop-color="#FCC58B"/>
<stop offset="0.453397" stop-color="#FB939E"/>
</linearGradient>
<clipPath id="clip0_52:262">
<rect width="496.5" height="376.3" fill="white" transform="translate(-23 145)"/>
</clipPath>
</defs>
<g filter="url(#filter0_d_52:262)">
<path d="M0 0H375V812H0V0Z" fill="#2D31AC"/>
</g>
<rect opacity="0.1" x="130" y="799" width="135" height="5" rx="2.5" fill="white"/>
<g clip-path="url(#clip0_52:262)">
<path opacity="0.5" d="M186.2 335.2C188.2 335.7 173.3 353.6 175.3 353.7C180.4 354 187.4 355.3 191.7 357.6C199 361.5 220 346.2 227.9 347.4C230.2 347.7 232.5 348.1 234.8 348.5C235.6 348.6 236.3 348.8 237.1 348.9C252 351.5 264.3 354.9 279.5 353.5C280.2 353.4 281 353.3 281.7 353.2C285.7 352.6 290.1 371 294.1 370.5C299.5 369.9 315.7 379.7 321.1 379.9C332.8 380.4 347.8 378.2 359.2 380.2C377.7 383.4 379.5 363.3 398.1 365.4C406.6 366.4 415.1 367.3 423.7 368.1C430.8 368.7 437.6 368.2 444.7 369.3C449.3 370 456.6 372.3 461.2 371.5C464.1 371 467.1 368.7 469.4 367.3C471.8 365.8 473.1 362.7 473.4 360.2C469.7 359.5 467.6 353.5 464.2 351.6C462.6 350.7 460.7 349.9 458.6 349.3C455.6 348.5 455 348.7 453.2 346.7C451.8 345.1 451.1 343.1 449.8 341.5C446.3 337.3 441.1 331.9 439 327.3C437.4 323.6 437.5 319.3 436.6 315.5C433.3 315.7 431.5 317.4 428.2 315.8C425 314.3 424.8 311.7 423.1 309.4C419.7 304.7 414.3 300.6 409.5 296.8C405.8 293.9 405.6 294.6 400.9 293.9C396.7 293.3 394.4 290.3 393 287.1C391.5 283.5 390.3 279.6 388.5 275.9C385.3 269.4 379.7 262.4 374.3 256.7C358.1 258.2 364.4 245.2 355.7 240.2C354.4 239.4 353 239.9 351.7 238.8C350 237.5 349.8 234.6 349 233C348.1 231.3 347.1 229.3 345.9 227.4C345.1 226.2 344.3 225 343.4 224C342.9 223.4 342.3 222.8 341.7 222.2C338.7 224.2 331.3 227.7 327 229C320.7 231 316.5 236.3 311.9 240.4C308.1 243.8 304.6 250.8 299.1 252.7C297.6 253.2 295.5 252.6 294 253.4C291.8 254.6 290.4 257.7 289 259.5C286.2 263.1 283.4 266.1 278.6 267.6C274.2 269 269.8 270 265.6 271.7C255.4 275.9 253.4 287.3 244.5 293.2C239.8 296.3 234.6 298.5 229.8 301.4C223.8 305 218.8 309.5 213.5 313.7C212.8 314.3 212.1 314.8 211.3 315.4C202.9 321.8 194.5 328.5 186.2 335.2Z" fill="#6067D1"/>
<path opacity="0.62" d="M227.9 347.3C226.7 349 225.7 350.8 225.2 352.8C228.6 351.5 231.7 349.9 234.8 348.3C237.7 346.8 240.5 345.3 243.6 343.9C251.9 340.1 259.8 335.6 268.6 332.3C272.7 330.7 281.6 329.8 284.5 327.1C286.3 325.4 286 320.4 286.3 318.4C287.1 313.3 287.3 308.1 288.2 303C289 298.6 291.7 299.9 296.3 298.4C299 297.5 300.9 295.9 303.8 295.2C307.6 294.3 313.3 293.2 317.3 293.4C317.9 290.7 319.2 288.4 320.1 285.8C320.4 284.8 320.1 283 321.1 282.3C322.9 281 330.7 281.2 333.3 281C335 274.6 332.4 267.7 333 261.2C330.3 262.1 327.2 261.9 324.3 262.9C319.7 264.5 315.8 267.3 311.1 268.7C315.1 263.2 321.5 258.1 327.7 254.1C323.3 254.1 317.9 256.8 313.5 255.1C315.8 254.4 318 253.8 320.2 252.9C322.3 252 323.7 251.2 325.8 250.6C326.8 250.3 329 250.3 329.7 249.7C331.5 248.2 330.2 244.9 330.1 242.9C330 239.5 329.4 235.6 331.2 233.1C333.9 229.3 339.2 226.9 343.3 223.9C342.8 223.3 342.2 222.7 341.6 222.1C338.6 224.1 331.2 227.6 326.9 228.9C320.6 230.9 316.4 236.2 311.8 240.3C308 243.7 304.5 250.7 299 252.6C297.5 253.1 295.4 252.5 293.9 253.3C291.7 254.5 290.3 257.6 288.9 259.4C286.1 263 283.3 266 278.5 267.5C274.1 268.9 269.7 269.9 265.5 271.6C255.3 275.8 253.3 287.2 244.4 293.1C239.7 296.2 234.5 298.4 229.7 301.3C223.7 304.9 218.7 309.4 213.4 313.6C212.7 314.2 179.9 341.2 179.1 341.8C187.8 338.2 198.5 347.4 217.7 326.5C218.7 325.4 230.7 322.6 233.1 320.3C235.9 317.5 233.4 312.1 236.7 308.9C241.4 304.4 249.6 301.7 251.5 300.1C256.3 296.2 262.1 292.4 267 288.1C264.3 292 261.7 296 258.6 299.8C254.2 305.2 248.1 308.6 247.6 315.5C247.3 319.7 245.5 321.3 242.7 325C239.3 329.5 236.8 334.3 234 339.1C232.5 341.9 229.9 344.5 227.9 347.3Z" fill="#777ADE"/>
<g opacity="0.5">
<path opacity="0.5" d="M258.6 334.3C255.6 335.9 252.6 337.5 249.3 338.8C249.7 336.8 250.7 335 251.9 333.2C254.2 333.6 256.4 333.9 258.6 334.3Z" fill="url(#paint0_linear_52:262)"/>
</g>
<path opacity="0.5" d="M241.6 353.4C212.5 347.6 181.8 350.8 151.7 351.8C146.3 352 140.9 352.1 135.5 352.1C109.6 352.3 83.7 351.2 57.8 350C30.8 348.8 3.89999 347.6 -23.1 346.4V318.3C-14.8 312.1 -5.60001 305.4 -5.60001 305.4L27.2 272.8C27.2 272.8 38.1 265.4 45 256C45.9 254.9 46.6 253.7 47.3 252.5C47.3 252.5 47.3 252.4 47.4 252.4C47.4 252.4 47.4 252.3 47.5 252.3C47.5 252.3 47.5 252.3 47.5 252.2C47.5 252.2 47.5 252.1 47.6 252.1C47.8 251.7 48.1 251.3 48.3 250.8C48.4 250.6 48.5 250.4 48.6 250.2C48.7 250 48.8 249.8 48.9 249.6C49 249.4 49 249.3 49.1 249.2C66 252.5 71.2 259 72.6 261.3C72.7 261.5 72.8 261.7 72.9 261.9C72.9 262 73 262 73 262.1L89.7 282.6L118.7 294.2C118.7 294.2 161.8 312.9 200.4 331.8C216 339.3 230.7 346.9 241.6 353.4Z" fill="#4B4FC4"/>
<path opacity="0.5" d="M241.6 353.4C212.5 347.6 181.8 350.8 151.7 351.8C146.3 352 140.9 352.1 135.5 352.1C132.5 351.3 129.6 350.5 126.7 349.6C119.2 347.4 120.3 333.3 120.3 333.3L112.7 323.1L107.3 316.2L100.5 319.1L98.3 331.4L88.6 312L76.8 305.4L69.9 292.3L69.1 302.4L63.3 284L55.5 273.7L56.7 261.1C56.7 261.1 48.1 253.2 47.7 252.3C48.6 251.1 47 253.6 47.7 252.3C48.3 251.3 48.8 250.2 49.3 249.1C70.1 253.4 73.2 262.1 73.2 262.1L89.9 282.6L118.9 294.2C118.9 294.2 162 312.9 200.6 331.8C216 339.3 230.7 346.9 241.6 353.4Z" fill="#5256C9"/>
<path opacity="0.5" d="M200.6 331.8C199.8 336.1 198.4 340.3 196.8 344.3C196.1 346 195.1 347.9 193 348.6C190.8 349.4 188.1 348.6 185.9 347.8C172.5 343.1 158.5 334.5 146.8 326.4C143.7 324.3 140.8 322.2 138.1 320.2C136.7 319.2 129.6 307.8 128.4 306.9C126.1 305.1 134.5 320.3 133.3 326.4C131.7 334.3 126.5 344.4 126.5 344.4L119.7 326.4L110 300.8L94.1 297.4L84.2 290.7L78.6 286.9L73.5 279.4L67.8 282.1L64.8 265.6L62.4 257.9L47.7 252.2C47.7 252.2 48.8 250.1 49.3 249C70.3 252.4 73.2 262 73.2 262L89.9 282.5L118.9 294.1C118.8 294.1 162 312.8 200.6 331.8Z" fill="#777ADE"/>
<path opacity="0.62" d="M-0.899994 350.7L0.400005 348.1C5.60001 337.2 12.6 327.6 20.7 320.4L20.9 309.5L30.5 304L45.5 263.9C45.5 263.9 42 294.8 41.4 297.1C40.8 299.4 43.1 311.7 43.1 311.7L36.9 312.4L41 328.1L29.9 324.9C29.9 324.9 35.3 332.7 34.2 334.6C25.5 349.9 37 354.6 37 354.6L-0.899994 350.7Z" fill="#6A6EDB"/>
<path d="M379.976 346.736C379.976 346.736 429.544 521 342.301 521C284.938 521 38.4989 521.351 -1.57493 495.971C-49.5437 465.446 -6.00002 350.5 -6.00002 350.5C-6.00002 350.5 54.9882 332 181.006 332C307.024 332 379.976 346.736 379.976 346.736Z" fill="url(#paint1_linear_52:262)"/>
<path opacity="0.26" d="M205.2 384.1C209.7 381.3 216 385.5 217.2 390.6C218.4 395.8 216 401.1 213.3 405.7C210.6 410.3 207.4 414.8 206.7 420.1C205.2 431.4 215.7 441 226.7 444.1C237.6 447.2 249.3 446.1 260.5 448.1C284.9 452.4 304.1 470.9 326.1 482.3C351.7 495.6 380.9 499.5 409.5 503.1C420.8 504.5 433.1 505.8 442.9 499.8C456.7 491.3 459.1 472.3 458.7 456.1C458.3 438 456.2 419.7 449.6 402.9C443 386 431.5 370.6 415.5 362.1C397 352.2 374.9 352.4 353.9 352.9C328.3 353.5 302.3 351.9 276.8 353.6C263.6 354.5 250.3 356.7 238 361.8C224.7 367.2 216.7 376.8 205.2 384.1Z" fill="url(#paint2_linear_52:262)"/>
<path d="M374.7 380.5C366.9 385.6 356.9 380.4 347.8 378.4C334 375.4 319.7 380.3 306.7 385.8C296.2 390.3 285.5 395.7 274 397.3C266.6 398.3 259.9 394 253.7 389.4C251 387.4 248.3 385.3 245.7 383.6C242.8 381.7 239.4 378.5 240.8 375.3C241.5 373.7 243.2 372.8 244.8 372C252.1 368.4 259.3 364.9 266.6 361.3C275.2 357.1 283.9 352.8 293.3 351.2C295.1 350.9 296.8 350.7 298.6 350.5C306.2 349.7 313.9 349.7 320.9 346.7C329.1 343.3 335.2 336.3 340.3 329C345.4 321.8 349.9 314 356.1 307.7C362.4 301.5 371.1 296.9 379.9 298C380.5 318 381.1 338 381.7 358C382 366.4 381.5 376.1 374.7 380.5Z" fill="#696DDB"/>
<path d="M298.7 350.6C297.8 355.5 297 363.1 292.1 363.9C244.9 372.1 254.5 389.1 253.7 389.5C251.7 388 249.7 386.5 247.8 385.2C247.1 384.7 246.4 384.2 245.7 383.8C242.8 381.9 239.4 378.7 240.8 375.5C241.5 373.9 243.2 373 244.8 372.2C252.1 368.6 259.3 365.1 266.6 361.5C275.2 357.3 283.9 353 293.3 351.4C294.5 351.2 295.7 351 297 350.9C297.6 350.7 298.2 350.6 298.7 350.6Z" fill="#5B5FD0"/>
<path d="M416.1 436.8C416.3 449.9 413.5 464.6 402.9 472.3C394.4 478.5 382.7 478.6 372.6 475.5C362.5 472.4 353.7 466.4 344.6 460.9C334.9 455.1 324.9 449.8 314.6 445.1C311.5 443.7 308.4 442.3 305.2 441C289.3 434.4 272.8 429.2 255.9 425.5C255.2 425.3 254.6 425.2 253.9 425.1C253.4 425 252.8 424.9 252.3 424.8C252.1 424.8 251.9 424.7 251.7 424.7C246.6 423.6 241.3 422.7 236.9 419.8C232.5 417 229.2 411.7 230.4 406.6C232 399.6 240.3 396.8 247.4 395.3C262.4 392 277.3 388.8 292.3 385.5C303.3 383.1 314.6 380.6 323.8 374.1C327.8 371.3 331.3 367.7 334.9 364.3C338.2 361.1 341.6 357.9 345.4 355.4C349 353 353.1 351.3 357.3 350.3C368.5 347.6 380.9 349.8 390.2 356.8L381.6 355.5C386.2 358.1 390.3 362.6 393.4 367C396.1 370.8 398.6 374.8 400.8 379C410.5 396.6 415.8 416.6 416.1 436.8Z" fill="#2D31AC"/>
<path opacity="0.2" d="M416.1 436.8C416.3 449.9 413.5 464.6 402.9 472.3C394.4 478.5 382.7 478.6 372.6 475.5C362.5 472.4 353.7 466.4 344.6 460.9C316.2 443.8 284.9 431.5 252.4 424.8C252.5 424.6 252.5 424.5 252.6 424.3C255.8 415.3 265.2 409.7 274.6 407.8C284 405.9 293.7 406.7 303.3 406.3C312.9 405.9 323 403.9 330.1 397.5C337.2 391 340.1 380.9 346.8 373.9C356.4 363.9 372.8 362.3 385.5 367.9C391.3 370.5 396.4 374.3 400.8 378.9C410.5 396.6 415.8 416.6 416.1 436.8Z" fill="#676BDA"/>
<path opacity="0.2" d="M378.3 336.3C376.4 334.9 374.5 333.6 372.6 332.4L391.1 334.4C386.8 335.1 382.5 335.7 378.3 336.3Z" fill="url(#paint3_linear_52:262)"/>
<path opacity="0.2" d="M416.1 436.8C416.3 449.9 413.5 464.6 402.9 472.3C394.4 478.5 382.7 478.6 372.6 475.5C362.5 472.4 353.7 466.4 344.6 460.9C334.9 455.1 324.9 449.8 314.6 445.1C314.9 444.5 315.3 443.9 315.7 443.3C321.3 435.5 331.3 433.8 340.1 434.8C349 435.9 357.6 439.2 366.5 439.4C375.4 439.6 385.3 435.7 388.9 426.6C392.8 416.9 388 405.6 382 397.4C373.5 385.8 362 376.8 349.3 371.7C344.9 370 340.4 368.6 336.5 365.7C335.9 365.2 335.3 364.7 334.7 364.1C338 360.9 341.4 357.7 345.2 355.2C358.5 346.4 377.3 347 390 356.6L381.4 355.3C386 357.9 390.1 362.4 393.2 366.8C395.9 370.6 398.4 374.6 400.6 378.8C410.5 396.6 415.8 416.6 416.1 436.8Z" fill="#696DDB"/>
<path d="M357.3 350.3C334.9 364.3 334.8 378.1 321.4 385.1C301.5 395.5 278.8 399.1 256.5 401.1C252.5 401.5 248.3 401.9 245 404.2C241.7 406.5 234.9 405.9 237 419.9C234.6 418.4 232.6 416.1 231.4 413.6C230.4 411.5 230 409.1 230.5 406.7C232.1 399.7 240.4 396.9 247.5 395.4C262.5 392.1 277.4 388.9 292.4 385.6C298.9 384.2 305.6 382.7 311.8 380.4C316.1 378.8 320.2 376.8 323.9 374.2C327.9 371.4 331.4 367.8 335 364.4C338.3 361.2 341.7 358 345.5 355.5C349 353 353.1 351.3 357.3 350.3Z" fill="#6064D4"/>
<path d="M349.2 314.3C348.9 312.6 348.7 310.9 349 309.3C349.3 307.6 350.3 306 351.2 304.5C352 302.9 352.8 301.2 352.5 299.4C354.6 303 355.1 307.5 353.9 311.4C353.3 313.5 352.2 315.5 351.1 317.5C350.7 318.3 350.2 319 349.8 317.7C349.4 316.6 349.4 315.3 349.2 314.3Z" fill="#1A1C6C"/>
<path d="M348.2 314.2C347.2 313.8 346.1 313.7 345.1 313.4C342.7 312.7 340.7 310.9 340 308.5C339.5 310.4 340.2 312.5 341.7 313.7C342.7 314.5 343.9 314.9 345 315.2C346.2 315.6 347.4 315.9 348.4 316.6C348.7 316.8 349 317.1 349.3 317.4C349.5 317.6 349.7 318.2 349.9 318.3C350.6 318.6 350.6 317.8 350.6 317.3C350.4 316 349.4 314.7 348.2 314.2Z" fill="#1A1C6C"/>
<path d="M344.6 318.5C341.3 320.4 337.2 321.1 333.5 320.4C334.4 322.9 337.3 324.6 339.9 324.2C343.1 323.7 345.3 320.9 347.7 319.1C348.2 318.7 350.7 317.4 349.6 316.4C348.6 315.5 345.4 318 344.6 318.5Z" fill="#1A1C6C"/>
<path opacity="0.26" d="M182 320.8C182.2 320.9 182.4 321 182.6 321.1C182.5 321.2 182.5 321.3 182.4 321.4L182 320.8Z" fill="url(#paint4_linear_52:262)"/>
</g>
<path opacity="0.1" d="M92.9 188.2C123 187.8 127.5 162.7 161.6 159.2C181.9 157.1 182.1 165.8 208.1 166.1C248.7 166.5 255.4 145.4 282 150.7C308.1 155.9 311.5 178.2 341.1 180.7C353.6 181.7 357.7 178.2 369.3 181.4C383.5 185.4 399.3 196.9 401.1 209.8C403.9 230.1 371.9 250.5 343.5 250.5C315 250.4 309.2 229.7 281.2 228.9C246.4 227.9 240.1 259.2 207.2 258.6C176.2 258.1 173 230.1 130.6 219.1C87 207.9 48.5 215.6 18.7 210C62.7 179.5 70.3 188.6 92.9 188.2Z" fill="url(#paint5_linear_52:262)"/>
<path opacity="0.1" d="M165.6 207.5C175.5 201.5 184.5 193.9 195.4 190C209.3 185 224.5 186.7 239.2 186C287.2 183.6 330 155 377.2 145.7C381.1 144.9 385.6 144.4 388.7 147C393.5 151.1 390.8 158.8 388.3 164.6C381.5 180.7 379.5 198.8 382.7 216C350.1 206.2 315.5 207 281.5 207.9C257.3 208.5 233.1 209.1 208.9 209.8C196.9 210.1 184.9 210.4 173 210.7C166.7 210.7 160 210.9 165.6 207.5Z" fill="url(#paint6_linear_52:262)"/>
<path d="M-21.5202 558.528C-15.3369 573.067 22.4313 554.183 30.62 548.334C32.7925 546.83 34.965 544.992 36.9704 543.321C37.9731 542.485 38.8087 541.65 39.6442 540.814C43.655 537.137 47.4987 532.96 51.3423 528.782C52.0108 528.113 52.6793 527.278 53.3477 526.609C57.1914 522.264 61.0351 517.919 65.0459 513.741C65.8814 512.906 66.717 512.07 67.5526 511.235C69.0566 509.73 70.5607 508.226 72.2318 506.722C74.0701 505.051 75.9084 503.38 77.9138 501.876C78.7493 501.04 79.752 500.372 80.7547 499.704C84.0971 497.03 87.4394 494.69 90.9488 492.35C91.9515 491.682 92.7871 491.014 93.7898 490.512C97.4663 488.173 101.143 485.833 104.819 483.493L106.992 482.156C111.838 479.148 116.685 476.14 121.531 473.132C122.199 472.798 122.868 472.297 123.536 471.962C125.208 470.792 127.046 469.623 128.717 468.62C147.601 455.919 165.482 439.542 172 417.817C161.472 436.2 142.253 449.235 121.364 451.908C110.501 453.412 99.3046 452.243 88.9434 455.919C77.2453 459.93 68.3882 469.288 58.5283 476.474C42.8194 487.838 32.9596 478.647 14.9111 485.332C-17.3423 497.197 -6.1455 520.426 -11.3261 529.283C-15.8382 535.466 -24.8625 550.674 -21.5202 558.528Z" fill="url(#paint7_linear_52:262)"/>
<path opacity="0.37" d="M104.318 483.326C103.649 480.653 103.649 474.469 103.649 473.467C103.984 468.954 105.488 465.278 106.825 460.933C105.488 465.445 104.986 470.291 105.488 474.971C105.488 475.639 106.49 479.316 106.49 481.822L104.318 483.326Z" fill="#FFF7FB"/>
<path opacity="0.37" d="M123.035 471.795C123.035 471.461 122.868 471.294 122.868 471.127C122.367 466.447 122.868 461.601 124.205 457.089C122.868 461.267 121.364 465.111 121.197 469.623C121.197 470.124 121.197 471.461 121.197 473.132C121.698 472.631 122.367 472.129 123.035 471.795Z" fill="#FFF7FB"/>
<path opacity="0.37" d="M93.2886 490.345C92.9543 487.671 92.2858 484.997 92.2858 484.329C91.7845 478.647 92.2858 472.798 93.7899 467.45C92.2858 472.631 90.4476 476.976 90.1133 482.491C90.1133 483.493 89.9462 488.674 90.4476 492.35C91.4503 491.515 92.453 491.014 93.2886 490.345Z" fill="#FFF7FB"/>
<path opacity="0.37" d="M77.5795 501.709C78.4151 500.873 79.4178 500.205 80.4205 499.536C80.0862 496.862 79.4178 494.189 79.4178 493.52C78.7493 487.838 79.4178 481.989 80.9218 476.641C79.4178 481.822 77.5795 486.167 77.2453 491.682C77.0782 492.517 77.0782 498.032 77.5795 501.709Z" fill="#FFF7FB"/>
<path opacity="0.37" d="M64.8786 513.741C65.7142 512.906 66.5498 512.07 67.3853 511.234C67.3853 508.226 66.2155 504.216 66.2155 503.38C65.7142 497.698 66.2155 491.849 67.7196 486.501C66.2155 491.682 64.3773 496.027 64.043 501.542C63.8759 502.712 63.8759 510.566 64.8786 513.741Z" fill="#FFF7FB"/>
<path opacity="0.37" d="M51.3425 528.782C49.8385 526.944 50.0056 516.917 50.0056 515.58C50.3398 510.232 52.1781 505.72 53.6821 500.539C52.011 506.054 51.5096 511.736 52.1781 517.418C52.3452 518.254 53.6821 523.434 53.3479 526.609L51.3425 528.782Z" fill="#FFF7FB"/>
<path opacity="0.37" d="M36.9703 543.154C35.6334 539.979 35.6334 529.618 35.8005 527.946C36.1348 521.429 38.4744 516.248 40.3127 510.232C38.3073 516.75 37.8059 523.601 38.4744 530.286C38.6415 531.289 39.9784 536.971 39.8113 540.647L36.9703 543.154Z" fill="#FFF7FB"/>
<path d="M-77.3288 599.817C-66.8005 575.251 -54.434 551.52 -40.3962 528.792C-40.2291 528.625 -40.062 528.458 -39.8949 528.291C-40.062 529.294 -40.2291 527.288 -39.8949 528.291C-30.8706 523.612 -21.8464 529.795 -12.3208 531.299C0.881363 533.305 14.9191 529.795 25.6145 521.606C36.3099 513.585 43.663 501.051 45.5013 487.849C38.9838 495.703 28.4555 499.046 18.4285 500.717C8.40157 502.388 -2.12672 502.555 -11.8194 505.73C-16.4987 507.234 -27.027 512.582 -33.7116 518.933C-33.5445 518.598 -33.3774 518.097 -33.2103 517.763C-29.1995 511.579 -25.1887 505.563 -20.8437 499.547C-11.4852 486.178 -1.45826 473.31 9.07004 460.943C3.55521 474.647 32.6334 476.318 44.1644 471.472C56.698 466.124 66.725 455.094 70.9029 442.059C53.5228 450.415 34.3045 439.051 18.2614 450.415C25.2803 442.561 32.4662 434.873 39.9865 427.52C39.9865 427.854 40.1536 428.022 40.1536 428.356C41.8247 432.367 55.3611 429.86 58.7034 429.191C73.7439 426.685 81.9325 418.496 93.7978 410.474C87.9487 414.318 80.5956 414.819 73.5768 414.652C66.5579 414.485 59.3719 413.817 52.6873 415.822C52.1859 415.989 51.6846 416.156 51.0161 416.491C55.8625 411.811 60.8759 407.299 65.8894 402.954C66.5579 403.456 67.3934 403.957 68.229 404.291C79.76 409.305 96.3045 395.1 102.989 387.245C110.509 378.555 115.69 368.194 120.871 358C113.35 362.846 104.493 365.019 95.8031 367.358C87.1131 369.698 78.4231 372.539 71.5714 378.388C65.8894 383.402 59.3719 395.267 64.5525 401.617C57.8679 407.466 51.1832 413.65 44.8328 419.833C45.3342 418.997 45.6684 417.995 46.1698 416.825C50.5148 404.291 51.6846 389.919 51.5175 376.717C51.5175 375.046 50.849 370.701 50.849 370.701C50.849 370.701 47.0053 373.208 46.0026 374.043C40.3207 379.224 34.4716 384.404 30.2937 390.755C26.1159 397.105 23.6091 405.127 25.1132 412.647C27.1185 421.838 33.8032 427.186 39.4851 425.013C23.6091 440.889 8.56869 457.601 -5.30193 475.315C-4.9677 474.647 -4.46635 473.978 -4.13211 473.477C-1.12403 469.466 2.21828 465.623 5.05926 461.445C18.4285 441.391 18.4285 413.315 5.22637 393.261C6.73042 395.434 -1.45826 414.318 -2.46095 417.66C-4.80058 426.183 -6.97308 434.706 -8.97847 443.396C-10.9839 452.253 -12.4879 461.11 -13.9919 469.968C-14.3262 472.641 -17.3343 485.844 -14.1591 486.679C-17 490.523 -19.841 494.367 -22.5149 498.21C-24.8545 501.552 -27.1941 504.895 -29.3666 508.237C-25.5229 498.043 -24.8545 487.181 -24.5202 476.151C-24.186 464.119 -23.6847 452.086 -23.3504 440.221C-23.3504 438.383 -23.8518 420.334 -23.8518 420.334C-23.8518 420.334 -32.7089 437.714 -33.5445 439.385C-44.0728 457.267 -50.089 477.822 -50.9245 498.544C-51.2588 506.232 -53.097 522.943 -46.2453 528.458C-45.0755 529.461 -43.9057 529.795 -42.903 529.795C-56.7736 552.189 -68.8059 575.418 -79 599.148L-77.3288 599.817Z" fill="url(#paint8_linear_52:262)"/>
<path d="M-22.0219 573.067C-22.0219 563.375 -21.5205 546.83 -10.3238 537.973C8.05897 523.434 33.9619 527.278 48.6681 533.461C60.032 538.307 58.6951 542.151 68.722 544.658C86.2692 549.003 96.9646 538.976 107.66 545.827C112.172 548.668 117.687 555.019 116.517 560.868C112.005 582.76 72.8999 591.283 38.1398 590.28C11.5684 589.612 -9.32108 580.253 -22.0219 573.067Z" fill="url(#paint9_linear_52:262)"/>
<path d="M116.517 560.868C112.005 582.76 72.9001 591.283 38.1401 590.28C11.5686 589.612 -9.15372 580.253 -21.8545 573.067C-21.8545 572.399 -21.8545 571.563 -21.8545 570.728C-21.6874 560.868 -20.5176 546.162 -10.1564 538.14C8.39344 523.601 34.1293 527.445 48.8355 533.628C60.1993 538.474 58.8624 542.318 68.8894 544.825C86.4365 549.17 97.1319 539.143 107.827 545.994C108.162 546.161 108.663 546.496 108.997 546.83C113.008 549.838 117.52 555.52 116.517 560.868Z" fill="#1A1C6C"/>
<path opacity="0.2" d="M108.83 546.663C105.655 552.679 100.14 557.358 94.1236 560.701C79.2503 568.889 60.5333 569.725 45.1587 562.706C40.6465 560.701 21.7625 553.682 16.5819 553.682C11.0671 553.682 5.55223 554.684 0.204519 556.356C-8.15127 559.197 -16.0057 564.043 -22.0219 570.561C-21.8548 560.701 -20.685 545.994 -10.3238 537.973C8.22608 523.434 33.9619 527.278 48.6681 533.461C60.032 538.307 58.6951 542.151 68.722 544.658C86.2692 549.003 96.9646 538.976 107.66 545.827C107.994 545.994 108.328 546.329 108.83 546.663Z" fill="#6F72D8"/>
<path d="M49.1695 565.213C45.8271 563.04 21.5953 548.334 -4.97607 557.692C-30.879 566.884 -42.7442 614.846 -45.251 649.606" stroke="#5A5ED5" stroke-miterlimit="10" stroke-linecap="round" stroke-linejoin="round"/>
<path d="M299.612 463.325C294.699 459.031 291.751 453.175 289 447.318C292.93 449.271 297.45 450.247 301.774 451.418C307.473 452.979 322.015 457.664 319.067 466.253C319.067 466.449 318.871 466.449 318.871 466.644C323.194 469.181 327.518 471.914 331.645 474.842C329.483 470.353 332.234 461.373 333.806 458.25C336.754 452.589 341.864 448.295 346.777 444C345.794 448.295 345.991 452.784 345.991 457.274C345.991 463.13 345.008 478.356 335.772 477.575C335.575 477.575 335.575 477.575 335.379 477.575C340.488 481.479 345.598 485.579 350.314 490.068C348.152 485.579 350.707 476.599 352.476 473.281C355.424 467.62 360.533 463.325 365.446 459.031C364.463 463.325 364.66 467.815 364.66 472.305C364.66 478.161 363.677 493.387 354.441 492.606C353.851 492.606 353.262 492.411 352.672 492.216C357.192 496.705 361.712 501.39 365.839 506.271C364.267 501.586 366.822 493.387 368.394 490.264C371.342 484.603 376.451 480.308 381.364 476.014C380.382 480.308 380.578 484.798 380.578 489.288C380.578 495.144 379.595 510.37 370.359 509.589C369.573 509.589 368.983 509.394 368.394 509.003C372.324 513.884 376.058 519.154 379.595 524.425C378.023 519.74 380.578 511.541 382.15 508.613C385.098 502.952 390.207 498.658 395.12 494.363C394.138 498.658 394.334 503.147 394.334 507.637C394.334 513.493 393.352 528.719 384.115 527.938C382.936 527.938 381.954 527.548 381.364 526.962C394.924 548.63 403.964 573.226 407.305 598.407L405.929 598.603C402.785 573.812 393.941 549.801 380.578 528.524C380.578 528.914 380.382 529.305 380.382 529.89C377.63 538.675 363.088 533.99 357.585 531.842C353.458 530.281 349.331 528.524 344.811 527.743C350.511 524.815 356.406 521.692 362.891 521.106C366.036 520.716 373.307 521.301 377.63 523.839C374.682 519.349 371.342 514.86 368.001 510.565C368.001 511.151 368.001 511.736 367.804 512.322C365.053 521.106 350.511 516.421 345.008 514.274C340.881 512.712 336.754 510.955 332.234 510.175C337.933 507.247 343.829 504.123 350.314 503.538C353.262 503.147 359.747 503.733 364.07 505.685C360.337 501.195 356.21 496.901 351.886 492.801C352.083 493.582 352.083 494.558 351.886 495.729C349.135 504.514 334.592 499.829 329.09 497.681C324.963 496.12 320.836 494.363 316.316 493.582C322.015 490.654 327.911 487.531 334.396 486.945C337.147 486.75 343.436 487.14 347.759 488.897C343.436 484.993 338.916 481.284 334.199 477.771C334.789 478.747 334.789 479.918 334.396 481.479C331.645 490.264 317.102 485.579 311.6 483.431C307.473 481.87 303.346 480.113 298.826 479.332C304.525 476.404 310.421 473.281 316.906 472.695C319.46 472.5 324.767 472.695 328.893 474.257C325.553 472.11 322.212 469.962 318.871 468.01C314.351 472.89 303.149 466.449 299.612 463.325Z" fill="#1A1C6C"/>
<path d="M396.206 609.695C403.428 605.925 392.184 587.279 388.844 583.308C387.982 582.253 386.949 581.211 386.008 580.248C385.538 579.766 385.075 579.371 384.611 578.975C382.558 577.063 380.254 575.257 377.95 573.452C377.579 573.135 377.122 572.826 376.752 572.509C374.362 570.71 371.972 568.911 369.661 567.02C369.197 566.624 368.734 566.229 368.27 565.833C367.436 565.121 366.602 564.409 365.761 563.611C364.827 562.734 363.893 561.858 363.038 560.888C362.575 560.492 362.19 560.004 361.806 559.516C360.295 557.907 358.957 556.284 357.611 554.575C357.227 554.087 356.849 553.685 356.551 553.189C355.198 551.395 353.846 549.6 352.494 547.805L351.718 546.743C349.975 544.374 348.231 542.006 346.488 539.637C346.289 539.307 346.004 538.984 345.805 538.654C345.136 537.842 344.459 536.945 343.876 536.127C336.579 526.936 327.433 518.411 316 515.945C325.878 520.609 333.36 529.957 335.585 540.586C336.8 546.109 336.654 551.912 338.966 557.088C341.504 562.938 346.675 567.11 350.77 571.886C357.25 579.499 352.927 584.941 357.097 593.947C364.509 610.043 375.994 603.343 380.758 605.645C384.12 607.713 392.304 611.733 396.206 609.695Z" fill="url(#paint10_linear_52:262)"/>
<path opacity="0.37" d="M352.429 548.07C351.081 548.522 347.903 548.774 347.387 548.815C345.054 548.827 343.103 548.203 340.815 547.693C343.189 548.196 345.701 548.257 348.086 547.809C348.429 547.781 350.278 547.116 351.567 547.014L352.429 548.07Z" fill="#FFF7FB"/>
<path opacity="0.37" d="M345.739 538.918C345.568 538.932 345.489 539.024 345.403 539.031C343.018 539.479 340.506 539.419 338.132 538.915C340.334 539.432 342.371 540.049 344.698 539.951C344.955 539.931 345.642 539.876 346.501 539.808C346.223 539.571 345.938 539.248 345.739 538.918Z" fill="#FFF7FB"/>
<path opacity="0.37" d="M356.485 553.454C355.124 553.735 353.777 554.187 353.434 554.214C350.533 554.703 347.506 554.683 344.696 554.128C347.42 554.69 349.729 555.458 352.577 555.406C353.092 555.365 355.762 555.24 357.632 554.833C357.161 554.351 356.863 553.856 356.485 553.454Z" fill="#FFF7FB"/>
<path opacity="0.37" d="M362.966 561.066C362.502 560.671 362.118 560.183 361.734 559.694C360.373 559.975 359.025 560.428 358.682 560.455C355.788 561.03 352.754 560.924 349.944 560.368C352.669 560.931 354.977 561.699 357.825 561.646C358.262 561.698 361.096 561.474 362.966 561.066Z" fill="#FFF7FB"/>
<path opacity="0.37" d="M369.668 567.106C369.204 566.71 368.741 566.315 368.277 565.919C366.731 566.041 364.717 566.806 364.287 566.84C361.387 567.329 358.36 567.309 355.55 566.754C358.274 567.316 360.582 568.084 363.431 568.032C364.039 568.07 368.076 567.75 369.668 567.106Z" fill="#FFF7FB"/>
<path opacity="0.37" d="M377.95 573.452C377.066 574.299 371.905 574.622 371.218 574.676C368.456 574.722 366.061 573.96 363.337 573.398C366.24 574.033 369.181 574.059 372.075 573.484C372.497 573.365 375.106 572.466 376.752 572.509L377.95 573.452Z" fill="#FFF7FB"/>
<path opacity="0.37" d="M385.923 580.254C384.345 581.071 379.019 581.493 378.153 581.475C374.789 581.568 372.031 580.576 368.864 579.876C372.295 580.642 375.838 580.621 379.247 580.005C379.755 579.878 382.622 578.96 384.518 578.896L385.923 580.254Z" fill="#FFF7FB"/>
<path d="M389.384 588.481C397.518 588.024 394.962 566.401 393.557 561.406C393.207 560.089 392.696 558.713 392.236 557.448C392.006 556.816 391.746 556.264 391.487 555.713C390.405 553.124 389.051 550.529 387.696 547.934C387.489 547.493 387.201 547.023 386.993 546.581C385.558 543.957 384.122 541.333 382.797 538.657C382.538 538.105 382.278 537.554 382.019 537.002C381.553 536.01 381.086 535.017 380.649 533.943C380.16 532.759 379.67 531.575 379.292 530.34C379.032 529.788 378.883 529.185 378.735 528.582C378.022 526.493 377.472 524.462 376.95 522.351C376.801 521.747 376.623 521.225 376.555 520.651C376.064 518.459 375.572 516.266 375.08 514.073L374.811 512.786C374.199 509.909 373.588 507.032 372.976 504.155C372.931 503.772 372.805 503.36 372.759 502.978C372.484 501.962 372.238 500.866 372.044 499.88C369.185 488.499 364.368 476.961 354.969 470C362.045 478.322 365.008 489.924 362.652 500.524C361.482 506.057 358.956 511.283 358.927 516.952C358.827 523.328 361.818 529.261 363.58 535.301C366.345 544.908 360.162 548.084 360.248 558.008C360.364 575.728 373.59 574.359 376.98 578.421C379.191 581.691 384.989 588.728 389.384 588.481Z" fill="url(#paint11_linear_52:262)"/>
<path opacity="0.37" d="M374.911 514.287C373.497 514.144 370.498 513.063 370.011 512.887C367.881 511.936 366.361 510.564 364.487 509.155C366.442 510.593 368.705 511.684 371.062 512.259C371.387 512.376 373.345 512.532 374.561 512.97L374.911 514.287Z" fill="#FFF7FB"/>
<path opacity="0.37" d="M372.591 503.191C372.428 503.133 372.318 503.185 372.237 503.156C369.88 502.58 367.616 501.49 365.661 500.052C367.454 501.431 369.056 502.833 371.215 503.703C371.458 503.791 372.107 504.025 372.918 504.317C372.762 503.986 372.636 503.574 372.591 503.191Z" fill="#FFF7FB"/>
<path opacity="0.37" d="M376.387 520.865C375.031 520.56 373.617 520.416 373.293 520.299C370.449 519.549 367.7 518.283 365.369 516.618C367.619 518.254 369.405 519.905 372.021 521.032C372.508 521.207 374.992 522.194 376.863 522.594C376.633 521.961 376.565 521.387 376.387 520.865Z" fill="#FFF7FB"/>
<path opacity="0.37" d="M379.152 530.472C378.893 529.921 378.744 529.318 378.595 528.714C377.24 528.409 375.826 528.266 375.501 528.149C372.628 527.479 369.908 526.132 367.577 524.467C369.827 526.103 371.613 527.755 374.23 528.881C374.606 529.108 377.281 530.073 379.152 530.472Z" fill="#FFF7FB"/>
<path opacity="0.37" d="M382.768 538.738C382.508 538.186 382.249 537.635 381.99 537.083C380.531 536.557 378.381 536.423 377.975 536.277C375.131 535.527 372.382 534.261 370.051 532.596C372.301 534.231 374.087 535.883 376.704 537.01C377.242 537.295 381.052 538.669 382.768 538.738Z" fill="#FFF7FB"/>
<path opacity="0.37" d="M387.696 547.934C386.542 548.342 381.707 546.508 381.058 546.274C378.523 545.176 376.656 543.496 374.406 541.86C376.788 543.635 379.457 544.872 382.33 545.541C382.765 545.606 385.511 545.864 386.993 546.581L387.696 547.934Z" fill="#FFF7FB"/>
</svg>
