<svg width="293" height="165" viewBox="0 0 293 165" fill="none" xmlns="http://www.w3.org/2000/svg">
<rect width="293" height="165" rx="24" fill="#6565C7"/>
<mask id="mask0_52:2464" style="mask-type:alpha" maskUnits="userSpaceOnUse" x="0" y="0" width="293" height="165">
<rect width="293" height="165" rx="24" fill="#2D31AC"/>
</mask>
<defs>
<radialGradient id="paint0_radial_52:2464" cx="0" cy="0" r="1" gradientUnits="userSpaceOnUse" gradientTransform="translate(41.8348 120.677) scale(98.8319 28.5537)">
<stop stop-color="white"/>
<stop offset="1" stop-color="white" stop-opacity="0"/>
</radialGradient>
</defs>
<g mask="url(#mask0_52:2464)">
<rect width="293" height="165" rx="24" fill="#2D31AC"/>
<path d="M217.197 101.958C214.148 100.603 211.777 99.9252 208.39 99.7559C204.833 99.5865 201.277 98.7397 198.059 98.0622C195.349 97.5542 191.454 97.0461 188.575 97.7235C186.203 98.401 184.849 99.5865 182.478 99.7559C180.106 99.9252 177.905 99.2478 175.534 99.4171C170.792 99.9252 167.235 100.772 162.323 99.9252C160.63 99.5865 158.936 99.0784 157.243 98.7397C154.702 98.401 153.178 97.7235 150.807 96.8767C148.266 96.1993 144.879 97.2154 142.169 96.538C140.984 96.1993 139.121 94.8444 137.935 94.1669C135.734 92.9814 135.056 93.1508 132.685 92.6427C130.992 92.3039 128.959 90.441 127.266 90.2716C125.741 90.1022 123.878 90.6103 122.185 90.6103C119.475 90.441 119.814 89.9329 117.443 88.578C114.733 87.0537 111.007 86.0376 108.297 84.852C106.265 84.0052 104.571 82.3116 102.708 81.9729C101.692 81.8035 98.4741 82.1422 98.1354 82.8197C96.7805 81.8035 96.103 82.6503 94.5788 82.8197C93.5626 82.8197 91.6996 82.8197 90.1754 82.8197C87.4656 82.8197 85.0945 84.1746 82.3847 84.5133C80.183 85.3601 76.7958 84.852 74.7635 85.3601C74.4247 85.5295 73.4086 86.8844 72.7311 87.2231C72.223 87.3925 71.0375 87.2231 70.36 87.2231C69.5132 87.2231 68.6664 87.7312 67.3115 87.3925C62.0613 86.715 57.1498 81.9729 53.7626 78.5856C50.7141 75.5371 40.383 75.3678 36.6571 77.0614C34.6247 73.6742 32.5924 72.4886 29.0358 72.1499C27.8502 71.9805 26.8341 72.1499 25.8179 71.8112C24.463 71.4725 23.7856 70.1176 22.6 69.7788C21.5839 69.2707 20.9064 69.7788 19.7209 69.6095C19.3822 69.6095 18.8741 69.7788 17.8579 69.6095C16.6724 69.2707 15.8256 67.9159 14.8094 67.5771C13.1158 67.069 9.72854 67.2384 8.37364 68.0852C7.18811 65.2061 5.4945 67.9159 3.97024 68.5933C2.44598 69.2708 0.244286 69.7788 -1.27997 69.2707C-5.17529 68.2546 -6.19146 64.5286 -10.9336 65.3754C-13.6434 65.8835 -17.3693 66.7303 -20.0791 67.5771C-21.7727 68.0852 -22.1115 67.7465 -23.9744 68.5933C-26.1762 69.4401 -27.3617 69.4401 -29.5634 68.7627L-33.12 110.934C-33.9668 110.595 -34.4749 110.595 -34.8136 111.103C-30.7489 111.103 -25.4987 113.135 -21.6034 114.321C-17.3693 115.507 -12.9659 117.369 -8.90125 118.386C-3.14295 119.91 2.95407 120.757 9.05109 121.604C30.3907 124.313 51.0528 128.039 72.5618 128.039C91.5303 128.039 110.499 128.547 129.467 128.039C146.403 127.701 163.001 124.652 179.598 122.45C192.809 120.757 205.172 117.369 218.043 113.474C221.939 112.289 231.592 108.901 232.1 104.498C226.85 103.821 222.447 104.329 217.197 101.958Z" fill="#5C5CB8"/>
<path d="M298.998 101.788C294.934 101.619 293.24 99.5864 289.175 99.9252C286.296 100.264 284.603 100.772 281.723 100.095C280.368 99.7558 279.014 98.909 277.997 98.7396C276.812 98.5703 274.441 99.7558 273.255 99.5864C271.562 99.2477 271.392 97.7235 269.699 97.3847C268.174 97.046 266.65 97.8928 265.295 97.8928C261.4 97.5541 259.706 95.5218 256.488 94.1669C252.424 92.4732 250.561 93.9975 247.174 93.8281C244.464 93.8281 241.754 92.812 238.875 92.9813C237.52 95.183 235.826 93.4894 233.963 94.1669C232.439 94.6749 231.084 97.046 229.221 97.7235C223.971 99.4171 217.705 97.8928 212.285 99.0783C211.269 99.2477 211.1 100.772 210.083 100.941C208.728 101.28 207.204 100.772 205.849 100.941C202.97 101.449 201.277 101.957 198.397 102.296C192.978 102.974 187.728 102.466 182.647 103.312C174.009 104.667 164.694 106.022 156.057 107.208C148.266 108.224 140.814 110.087 132.854 110.426C126.757 110.764 121.507 108.224 115.749 107.377C113.886 107.038 111.515 107.208 109.313 106.869C106.603 106.53 105.248 105.345 102.708 104.667C98.1353 103.312 93.5625 103.651 88.9897 104.329C83.7395 105.175 83.5702 102.804 78.32 102.974C73.7472 100.264 72.0536 101.28 69.8519 101.111C67.4808 100.941 66.634 100.264 65.2791 99.7558C62.5693 98.7396 59.3514 99.0783 55.4561 97.8928C53.4238 96.7073 52.2382 95.0137 51.2221 94.3362C50.8833 94.1669 49.3591 94.6749 48.851 94.6749C47.3268 94.3362 46.6493 92.9813 44.7863 92.6426C41.7378 92.1345 38.1812 93.8281 34.9633 93.1507C32.931 92.812 32.0842 91.6264 29.7131 91.2877C27.6808 91.1183 25.4791 91.7958 23.2774 91.7958C21.0757 91.7958 18.874 90.949 16.6723 91.2877C13.1157 91.9652 15.3174 92.1345 13.1157 93.8281C11.4221 95.183 10.914 97.046 8.20419 97.046C5.15567 97.046 5.83312 95.5218 3.80078 94.3362C0.244184 92.4732 -2.97369 93.1507 -7.20774 93.4894C-14.829 93.9975 -22.4503 93.9975 -30.2409 94.3362C-30.9184 104.837 -31.5958 117.539 -30.0716 127.7C-24.652 130.918 -16.0145 132.104 -9.91752 132.951C2.61525 134.644 15.148 137.015 27.5114 139.386C36.8263 141.08 46.3106 143.112 55.7948 143.79C69.6825 144.806 83.5702 143.79 97.4578 144.806C125.741 147.008 154.702 144.637 183.155 144.298C224.818 143.959 266.142 145.145 307.805 145.145V99.4171C305.095 100.772 301.877 101.957 298.998 101.788Z" fill="#333399"/>
<path opacity="0.5" d="M41.9073 149.379C96.5322 149.379 140.815 136.564 140.815 120.757C140.815 104.949 96.5322 92.1346 41.9073 92.1346C-12.7177 92.1346 -57 104.949 -57 120.757C-57 136.564 -12.7177 149.379 41.9073 149.379Z" fill="url(#paint0_radial_52:2464)"/>
<path d="M244.633 112.627C243.278 112.966 242.432 113.643 240.738 113.813C239.383 113.982 237.859 113.813 236.504 113.643C234.472 113.474 234.81 112.797 232.947 113.135C230.576 113.643 231.254 114.49 228.375 113.135C226.681 114.829 223.463 114.321 221.092 114.321C218.213 114.321 215.842 115.168 213.132 115.168C210.084 115.337 208.898 114.152 206.188 115.337C205.003 115.845 204.156 117.2 202.97 117.708C202.293 118.047 200.261 117.878 199.414 118.047C197.551 118.386 195.18 118.724 193.825 119.741C192.809 120.587 192.131 122.281 190.946 122.789C187.728 124.144 185.018 121.265 182.647 120.249C181.292 119.741 180.106 120.249 178.921 119.91C177.905 119.571 177.227 118.894 176.381 118.386C174.179 117.369 168.251 118.386 167.743 115.506C166.049 115.337 164.186 115.337 162.493 115.168C161.815 115.168 160.799 115.337 160.122 115.168C159.106 114.66 159.106 113.474 158.259 113.135C157.581 112.797 156.396 113.135 155.718 112.797C155.041 112.458 154.025 111.611 153.178 111.442C151.146 110.764 149.621 110.764 147.758 109.918C146.234 109.24 144.202 109.071 142.678 108.393C140.984 107.716 139.29 106.022 137.089 105.514C134.209 104.837 132.855 105.514 130.145 104.159C128.282 103.143 127.096 102.296 124.895 102.635C121.677 103.143 121.169 106.361 118.12 105.514C118.967 100.603 111.854 102.296 107.958 103.821C105.079 105.175 103.047 107.377 100.337 108.901C98.4741 110.087 98.4741 109.579 96.6111 109.748C95.2563 109.918 94.0707 110.087 92.7158 110.256C91.5303 110.426 90.3448 110.087 89.1592 110.256C87.4656 110.595 86.2801 111.781 84.7558 111.95C82.046 112.458 78.9975 111.272 76.2877 111.95C74.5941 112.458 73.7473 113.135 71.8843 113.305C70.3601 113.474 69.0052 112.966 67.4809 112.966C65.1099 113.135 62.2307 113.982 59.5209 113.474C56.3031 112.797 54.2707 111.103 50.5448 111.442C47.835 111.781 45.4639 112.797 42.5848 113.643C36.9958 114.998 30.8988 113.813 24.9711 114.152C19.3822 114.49 -25.3293 113.305 -30.9182 113.643C-31.5957 125.499 -34.1361 139.556 -33.7974 151.242C-33.4587 151.411 3.80093 172.073 3.97029 172.073L301.37 166.823C301.2 123.128 248.867 111.78 244.633 112.627Z" fill="#3D3D99"/>
</g>
<!-- <path d="M23.5449 140.135C25.2734 140.135 26.5156 138.945 26.5156 137.275C26.5156 135.658 25.332 134.475 23.7207 134.475C22.8594 134.475 22.0918 134.826 21.6641 135.447H21.6465L21.9805 132.26H26.0059V131.545H21.3184L20.8613 136.285H21.582C22.0098 135.553 22.7305 135.166 23.5918 135.166C24.8164 135.166 25.7129 136.068 25.7129 137.293C25.7129 138.535 24.8164 139.426 23.5566 139.426C22.4668 139.426 21.6055 138.746 21.4941 137.797H20.709C20.8145 139.162 21.998 140.135 23.5449 140.135ZM29.7951 135.535C29.7951 136.379 30.34 136.889 31.5002 137.158L32.4142 137.375C33.2345 137.574 33.5334 137.867 33.5334 138.395C33.5334 139.033 32.9298 139.461 32.0158 139.461C31.1017 139.461 30.5099 139.021 30.3927 138.254H29.6193C29.7248 139.367 30.6388 140.1 32.0158 140.1C33.3459 140.1 34.3127 139.367 34.3127 138.336C34.3127 137.475 33.8556 137.006 32.6369 136.713L31.717 136.496C30.9084 136.303 30.5627 135.992 30.5627 135.494C30.5627 134.885 31.131 134.445 31.963 134.445C32.8068 134.445 33.3576 134.908 33.4572 135.67H34.2013C34.131 134.562 33.2638 133.807 31.963 133.807C30.6916 133.807 29.7951 134.527 29.7951 135.535ZM35.6096 132.383V133.906H34.7014V134.551H35.6096V138.5C35.6096 139.602 36.0198 140.035 37.0393 140.035C37.2034 140.035 37.5315 140.018 37.6135 140V139.338C37.5666 139.35 37.2737 139.361 37.1916 139.361C36.6291 139.361 36.383 139.092 36.383 138.465V134.551H37.5842V133.906H36.383V132.383H35.6096ZM40.803 134.486C41.9046 134.486 42.637 135.324 42.6546 136.525H38.8929C38.9573 135.324 39.7132 134.486 40.803 134.486ZM42.6077 138.271C42.4378 138.939 41.7991 139.42 40.8792 139.42C39.6663 139.42 38.887 138.564 38.887 137.188V137.141H43.4515V136.812C43.4515 134.996 42.432 133.807 40.8148 133.807C39.1624 133.807 38.0902 135.078 38.0902 136.971C38.0902 138.904 39.1507 140.1 40.8616 140.1C42.2034 140.1 43.1937 139.326 43.3753 138.271H42.6077ZM47.2621 133.807C46.2719 133.807 45.4984 134.387 45.1645 135.195H45.141V133.906H44.4086V142.016H45.182V138.746H45.2055C45.5277 139.537 46.2953 140.1 47.2797 140.1C48.809 140.1 49.8578 138.852 49.8578 136.953C49.8578 135.061 48.8031 133.807 47.2621 133.807ZM47.1273 139.414C45.973 139.414 45.182 138.424 45.182 136.953C45.182 135.488 45.973 134.492 47.1273 134.492C48.3051 134.492 49.0668 135.471 49.0668 136.953C49.0668 138.441 48.3051 139.414 47.1273 139.414ZM50.6977 135.535C50.6977 136.379 51.2427 136.889 52.4028 137.158L53.3169 137.375C54.1372 137.574 54.436 137.867 54.436 138.395C54.436 139.033 53.8325 139.461 52.9184 139.461C52.0044 139.461 51.4126 139.021 51.2954 138.254H50.522C50.6274 139.367 51.5415 140.1 52.9184 140.1C54.2485 140.1 55.2153 139.367 55.2153 138.336C55.2153 137.475 54.7583 137.006 53.5395 136.713L52.6196 136.496C51.811 136.303 51.4653 135.992 51.4653 135.494C51.4653 134.885 52.0337 134.445 52.8657 134.445C53.7095 134.445 54.2602 134.908 54.3598 135.67H55.104C55.0337 134.562 54.1665 133.807 52.8657 133.807C51.5942 133.807 50.6977 134.527 50.6977 135.535Z" fill="white"/> -->
<!-- <path opacity="0.8" d="M21.0938 67.7266V79H24.8828C28.2344 79 30.2031 76.9141 30.2031 73.3594C30.2031 69.8125 28.2266 67.7266 24.8828 67.7266H21.0938ZM22.5 68.9922H24.7891C27.3516 68.9922 28.7656 70.5547 28.7656 73.375C28.7656 76.1719 27.3438 77.7344 24.7891 77.7344H22.5V68.9922ZM34.3419 77.9844C33.3653 77.9844 32.7169 77.4766 32.7169 76.7031C32.7169 75.9375 33.3419 75.4531 34.4356 75.3828L36.6075 75.25V75.9141C36.6075 77.0859 35.6231 77.9844 34.3419 77.9844ZM34.0372 79.1406C35.1309 79.1406 36.1622 78.5312 36.6466 77.6016H36.6778V79H37.9669V73.3828C37.9669 71.7656 36.7638 70.7344 34.8575 70.7344C32.9356 70.7344 31.7325 71.8125 31.6388 73.2188H32.9513C33.1231 72.4219 33.7794 71.9297 34.8263 71.9297C35.9513 71.9297 36.6075 72.5234 36.6075 73.5156V74.1953L34.2794 74.3281C32.4044 74.4375 31.3341 75.3125 31.3341 76.7031C31.3341 78.1641 32.42 79.1406 34.0372 79.1406ZM39.6838 79H41.0431V70.875H39.6838V79ZM40.3634 69.4297C40.84 69.4297 41.215 69.0469 41.215 68.5781C41.215 68.1016 40.84 67.7266 40.3634 67.7266C39.8947 67.7266 39.5119 68.1016 39.5119 68.5781C39.5119 69.0469 39.8947 69.4297 40.3634 69.4297ZM42.8694 79H44.2288V67.7266H42.8694V79ZM46.6644 82.0391C48.1331 82.0391 48.805 81.4688 49.5003 79.5703L52.6956 70.875H51.2659L49.0159 77.6406H48.9925L46.7425 70.875H45.2894L48.2894 79.0078L48.1019 79.5781C47.7894 80.5234 47.3675 80.8906 46.6097 80.8906C46.4378 80.8906 46.2269 80.8828 46.0784 80.8516V81.9922C46.2269 82.0234 46.5003 82.0391 46.6644 82.0391ZM61.7388 79.1875C64.2309 79.1875 65.9028 77.9453 66.4184 75.7188H64.9966C64.5903 77.0938 63.4028 77.8906 61.7466 77.8906C59.52 77.8906 58.1059 76.125 58.1059 73.3594C58.1059 70.6172 59.5356 68.8359 61.7388 68.8359C63.3481 68.8359 64.6372 69.8047 64.9966 71.2812H66.4184C66.0591 69.0312 64.1919 67.5391 61.7388 67.5391C58.6528 67.5391 56.6606 69.8203 56.6606 73.3594C56.6606 76.9297 58.6294 79.1875 61.7388 79.1875ZM70.4712 77.9844C69.4947 77.9844 68.8462 77.4766 68.8462 76.7031C68.8462 75.9375 69.4712 75.4531 70.565 75.3828L72.7369 75.25V75.9141C72.7369 77.0859 71.7525 77.9844 70.4712 77.9844ZM70.1666 79.1406C71.2603 79.1406 72.2916 78.5312 72.7759 77.6016H72.8072V79H74.0962V73.3828C74.0962 71.7656 72.8931 70.7344 70.9869 70.7344C69.065 70.7344 67.8619 71.8125 67.7681 73.2188H69.0806C69.2525 72.4219 69.9087 71.9297 70.9556 71.9297C72.0806 71.9297 72.7369 72.5234 72.7369 73.5156V74.1953L70.4087 74.3281C68.5337 74.4375 67.4634 75.3125 67.4634 76.7031C67.4634 78.1641 68.5494 79.1406 70.1666 79.1406ZM75.8131 79H77.1725V67.7266H75.8131V79ZM78.9284 79H80.2878V73.9062C80.2878 72.7812 81.0691 71.9375 82.1472 71.9375C83.155 71.9375 83.8112 72.5781 83.8112 73.5547V79H85.1706V73.8359C85.1706 72.7344 85.9284 71.9375 87.0066 71.9375C88.0769 71.9375 88.6941 72.5938 88.6941 73.7031V79H90.0534V73.3906C90.0534 71.7812 89.0144 70.7344 87.405 70.7344C86.2644 70.7344 85.3112 71.3125 84.8581 72.2812H84.8269C84.4753 71.2969 83.655 70.7344 82.5456 70.7344C81.4519 70.7344 80.6237 71.3125 80.2409 72.1719H80.2097V70.875H78.9284V79Z" fill="white"/> -->
<!-- <path d="M20.916 41.4902C21.0801 45.0996 24.1016 47.3281 28.668 47.3281C33.4121 47.3281 36.3789 44.9492 36.3789 41.1758C36.3789 38.25 34.6426 36.582 30.4863 35.7207L28.3535 35.2832C25.8926 34.7637 24.9082 33.9023 24.9082 32.5625C24.9082 30.9082 26.4668 29.8691 28.6543 29.8691C30.9102 29.8691 32.4688 30.9902 32.6328 32.8496H36.0098C35.9277 29.3223 33.043 26.9434 28.6816 26.9434C24.4023 26.9434 21.3535 29.2949 21.3535 32.7676C21.3535 35.6523 23.1992 37.5117 27.1504 38.3184L29.2695 38.7559C31.8398 39.2891 32.8242 40.1641 32.8242 41.5859C32.8242 43.2266 31.1699 44.4023 28.791 44.4023C26.3301 44.4023 24.5527 43.3086 24.293 41.4902H20.916ZM47.6328 32.2617C45.5273 32.2617 43.8867 33.3281 43.0664 35.0098H42.998V32.5078H39.6758V51.7715H43.0801V44.5938H43.1484C43.9414 46.2207 45.582 47.2324 47.6875 47.2324C51.3242 47.2324 53.6484 44.375 53.6484 39.7539C53.6484 35.1191 51.3105 32.2617 47.6328 32.2617ZM46.5938 44.4434C44.4746 44.4434 43.0664 42.5977 43.0527 39.7539C43.0664 36.9375 44.4746 35.0645 46.5938 35.0645C48.7949 35.0645 50.1621 36.8965 50.1621 39.7539C50.1621 42.625 48.7949 44.4434 46.5938 44.4434ZM56.918 47H60.3223V32.5078H56.918V47ZM58.5996 30.3203C59.6523 30.3203 60.4727 29.4863 60.4727 28.4746C60.4727 27.4492 59.6523 26.6289 58.5996 26.6289C57.5742 26.6289 56.7402 27.4492 56.7402 28.4746C56.7402 29.4863 57.5742 30.3203 58.5996 30.3203ZM64.1797 47H67.584V38.5645C67.584 36.5273 68.7461 35.2832 70.6738 35.2832C71.248 35.2832 71.7676 35.3652 72.0547 35.4746V32.3984C71.8086 32.3438 71.4258 32.2617 70.9883 32.2617C69.2793 32.2617 68.0078 33.2734 67.5156 35.0371H67.4473V32.5078H64.1797V47ZM74.8867 47H78.291V32.5078H74.8867V47ZM76.5684 30.3203C77.6211 30.3203 78.4414 29.4863 78.4414 28.4746C78.4414 27.4492 77.6211 26.6289 76.5684 26.6289C75.543 26.6289 74.709 27.4492 74.709 28.4746C74.709 29.4863 75.543 30.3203 76.5684 30.3203ZM83.0918 29.1172V32.5078H81.0137V35.1328H83.0918V43.1445C83.0918 45.9609 84.3223 47.0684 87.4531 47.0684C88.1777 47.0684 88.8477 47.0137 89.2168 46.9316V44.334C88.998 44.375 88.5605 44.4023 88.2461 44.4023C87.043 44.4023 86.4961 43.8555 86.4961 42.666V35.1328H89.2305V32.5078H86.4961V29.1172H83.0918ZM105.406 32.5078H102.002V40.8887C102.002 42.9941 100.785 44.3887 98.8164 44.3887C96.9023 44.3887 95.8906 43.2676 95.8906 41.1895V32.5078H92.4863V41.873C92.4863 45.2227 94.4824 47.2598 97.627 47.2598C99.8281 47.2598 101.291 46.248 102.057 44.4844H102.125V47H105.406V32.5078ZM114.486 44.6621C113.01 44.6621 112.025 43.9102 112.025 42.7207C112.025 41.5723 112.969 40.834 114.609 40.7246L117.959 40.5195V41.627C117.959 43.377 116.414 44.6621 114.486 44.6621ZM113.461 47.2324C115.32 47.2324 117.139 46.2617 117.973 44.6895H118.041V47H121.322V37.0195C121.322 34.1074 118.984 32.207 115.389 32.207C111.697 32.207 109.387 34.1484 109.236 36.8555H112.395C112.613 35.6523 113.639 34.873 115.252 34.873C116.934 34.873 117.959 35.748 117.959 37.2656V38.3047L114.131 38.5234C110.604 38.7422 108.621 40.2871 108.621 42.8574C108.621 45.4688 110.658 47.2324 113.461 47.2324ZM125.166 47H128.57V27.2715H125.166V47Z" fill="white"/> -->
</svg>
