<svg width="29" height="29" viewBox="0 0 29 29" fill="none" xmlns="http://www.w3.org/2000/svg">
<circle cx="14.5" cy="14.5" r="14.5" fill="#2D31AC"/>
<path d="M8.33337 9H12.3334C13.0406 9 13.7189 9.28095 14.219 9.78105C14.7191 10.2811 15 10.9594 15 11.6667V21C15 20.4696 14.7893 19.9609 14.4143 19.5858C14.0392 19.2107 13.5305 19 13 19H8.33337V9Z" stroke="white" stroke-width="1.5" stroke-linecap="round" stroke-linejoin="round"/>
<path d="M21.6667 9H17.6667C16.9594 9 16.2811 9.28095 15.781 9.78105C15.281 10.2811 15 10.9594 15 11.6667V21C15 20.4696 15.2107 19.9609 15.5858 19.5858C15.9609 19.2107 16.4696 19 17 19H21.6667V9Z" stroke="white" stroke-width="1.5" stroke-linecap="round" stroke-linejoin="round"/>
</svg>
