<svg width="293" height="165" viewBox="0 0 293 165" fill="none" xmlns="http://www.w3.org/2000/svg">
<rect x="1" width="292" height="165" rx="28" fill="#FFBDA2"/>
<rect width="293" height="165" rx="28" fill="#FF9870"/>
<mask id="mask0_52:2091" style="mask-type:alpha" maskUnits="userSpaceOnUse" x="0" y="0" width="293" height="165">
<rect width="293" height="165" rx="24" fill="#C58A72"/>
</mask>
<defs>
<linearGradient id="paint0_linear_52:2091" x1="287.128" y1="138.709" x2="213.41" y2="96.4953" gradientUnits="userSpaceOnUse">
<stop stop-color="#FEA171"/>
<stop offset="1" stop-color="#FFD1A1"/>
</linearGradient>
<linearGradient id="paint1_linear_52:2091" x1="81.2911" y1="112.754" x2="237.412" y2="112.754" gradientUnits="userSpaceOnUse">
<stop stop-color="white" stop-opacity="0"/>
<stop offset="0.984" stop-color="white" stop-opacity="0.7"/>
</linearGradient>
<linearGradient id="paint2_linear_52:2091" x1="-10.5742" y1="127.259" x2="187.585" y2="127.259" gradientUnits="userSpaceOnUse">
<stop stop-color="white" stop-opacity="0"/>
<stop offset="0.984" stop-color="white" stop-opacity="0.36"/>
</linearGradient>
</defs>
<g mask="url(#mask0_52:2091)">
<path opacity="0.3" d="M303.312 113.036C303.312 117.66 290.975 120.602 289.98 125.016C288.786 129.43 298.138 138.467 295.949 142.461C293.76 146.454 281.821 142.461 278.637 145.613C275.653 148.766 279.433 161.587 275.653 163.899C271.872 166.211 263.315 156.332 259.137 157.594C254.958 158.855 252.371 171.676 247.795 171.676C243.417 171.676 240.631 158.644 236.452 157.594C232.274 156.332 223.717 166.211 219.936 163.899C216.156 161.587 219.936 148.976 216.952 145.613C213.967 142.461 201.829 146.454 199.64 142.461C197.451 138.467 206.803 129.43 205.609 125.016C204.416 120.602 192.277 117.87 192.277 113.036C192.277 108.412 204.614 105.469 205.609 101.055C206.803 96.6416 197.451 87.6039 199.64 83.6105C201.829 79.6171 213.768 83.6105 216.952 80.4578C219.936 77.3051 216.156 64.4842 219.936 62.1723C223.717 59.8603 232.274 69.7387 236.452 68.4776C240.631 67.2166 243.218 54.3956 247.795 54.3956C252.172 54.3956 254.958 67.4267 259.137 68.4776C263.315 69.7387 271.872 59.8603 275.653 62.1723C279.433 64.4842 275.653 77.095 278.637 80.4578C281.622 83.6105 293.76 79.6171 295.949 83.6105C298.138 87.6039 288.786 96.6416 289.98 101.055C290.975 105.469 303.312 108.412 303.312 113.036Z" fill="#FF5B1C"/>
<path d="M282.617 113.036C282.617 113.246 282.617 113.456 282.617 113.876C282.418 127.958 274.459 140.359 263.117 146.034C258.54 148.556 253.366 149.817 247.795 149.817C231.677 149.817 217.947 138.047 213.967 122.073C213.171 119.131 212.773 116.188 212.773 112.825C212.773 95.3805 224.314 80.668 239.835 77.095C242.223 76.4644 245.009 76.0441 247.596 76.0441C266.897 76.2542 282.617 92.8584 282.617 113.036Z" fill="url(#paint0_linear_52:2091)"/>
<path opacity="0.3" d="M282.617 113.036C282.617 113.246 282.617 113.456 282.617 113.876C282.418 127.958 274.459 140.359 263.117 146.034C256.152 142.671 250.58 137.206 247.596 129.85C245.009 122.704 245.208 115.137 245.407 107.361C245.606 102.527 245.606 97.9027 245.208 93.2787C244.611 87.6039 242.82 82.1392 240.034 77.3051C242.422 76.6746 245.208 76.2542 247.795 76.2542C266.897 76.2542 282.617 92.8584 282.617 113.036Z" fill="white" fill-opacity="0.4"/>
<path opacity="0.3" d="M282.617 113.876C282.418 127.958 274.459 140.359 263.117 146.034C258.54 148.556 253.366 149.817 247.795 149.817C231.677 149.817 217.947 138.047 213.967 122.073C222.921 114.297 233.866 109.042 245.407 107.151C253.565 105.679 261.923 106.1 270.081 108.412C274.459 109.883 278.638 111.564 282.617 113.876Z" fill="white" fill-opacity="0.4"/>
<path d="M4.34961 164.802H264.624C255.271 137.269 240.944 118.142 221.842 117.302C204.331 116.461 196.968 141.893 180.055 139.791C158.166 136.848 156.574 79.8898 127.92 65.1772C123.144 62.6551 118.17 61.394 113.394 60.9736C97.6742 59.2922 82.3523 66.8587 71.607 80.3101L4.34961 164.802Z" fill="url(#paint1_linear_52:2091)"/>
<path d="M-52.3613 179.308H207.913C202.938 149.252 184.233 107.426 165.131 106.586C147.62 105.745 140.258 135.38 123.344 133.278C101.455 130.336 99.8633 94.3953 71.2092 79.6827C66.4335 77.1606 61.4589 75.8995 56.6832 75.4791C40.9633 73.7977 25.6413 81.3641 14.8961 94.8156L-52.3613 179.308Z" fill="url(#paint2_linear_52:2091)"/>
<!-- <line x1="64.5" y1="127.857" x2="64.5" y2="139.643" stroke="white"/> -->
<!-- <path d="M22.248 138H23.0977L26.9707 130.295V129.545H21.4629V130.26H26.168V130.283L22.248 138ZM30.3263 133.535C30.3263 134.379 30.8713 134.889 32.0314 135.158L32.9455 135.375C33.7658 135.574 34.0646 135.867 34.0646 136.395C34.0646 137.033 33.4611 137.461 32.547 137.461C31.633 137.461 31.0412 137.021 30.924 136.254H30.1505C30.256 137.367 31.1701 138.1 32.547 138.1C33.8771 138.1 34.8439 137.367 34.8439 136.336C34.8439 135.475 34.3869 135.006 33.1681 134.713L32.2482 134.496C31.4396 134.303 31.0939 133.992 31.0939 133.494C31.0939 132.885 31.6623 132.445 32.4943 132.445C33.338 132.445 33.8888 132.908 33.9884 133.67H34.7326C34.6623 132.562 33.7951 131.807 32.4943 131.807C31.2228 131.807 30.3263 132.527 30.3263 133.535ZM36.1409 130.383V131.906H35.2327V132.551H36.1409V136.5C36.1409 137.602 36.551 138.035 37.5705 138.035C37.7346 138.035 38.0627 138.018 38.1448 138V137.338C38.0979 137.35 37.8049 137.361 37.7229 137.361C37.1604 137.361 36.9143 137.092 36.9143 136.465V132.551H38.1155V131.906H36.9143V130.383H36.1409ZM41.3343 132.486C42.4359 132.486 43.1683 133.324 43.1859 134.525H39.4241C39.4886 133.324 40.2445 132.486 41.3343 132.486ZM43.139 136.271C42.9691 136.939 42.3304 137.42 41.4105 137.42C40.1976 137.42 39.4183 136.564 39.4183 135.188V135.141H43.9827V134.812C43.9827 132.996 42.9632 131.807 41.346 131.807C39.6937 131.807 38.6214 133.078 38.6214 134.971C38.6214 136.904 39.682 138.1 41.3929 138.1C42.7347 138.1 43.7249 137.326 43.9066 136.271H43.139ZM47.7934 131.807C46.8031 131.807 46.0297 132.387 45.6957 133.195H45.6723V131.906H44.9398V140.016H45.7133V136.746H45.7367C46.059 137.537 46.8266 138.1 47.8109 138.1C49.3402 138.1 50.3891 136.852 50.3891 134.953C50.3891 133.061 49.3344 131.807 47.7934 131.807ZM47.6586 137.414C46.5043 137.414 45.7133 136.424 45.7133 134.953C45.7133 133.488 46.5043 132.492 47.6586 132.492C48.8363 132.492 49.598 133.471 49.598 134.953C49.598 136.441 48.8363 137.414 47.6586 137.414ZM51.229 133.535C51.229 134.379 51.7739 134.889 52.9341 135.158L53.8481 135.375C54.6684 135.574 54.9673 135.867 54.9673 136.395C54.9673 137.033 54.3638 137.461 53.4497 137.461C52.5356 137.461 51.9438 137.021 51.8266 136.254H51.0532C51.1587 137.367 52.0727 138.1 53.4497 138.1C54.7798 138.1 55.7466 137.367 55.7466 136.336C55.7466 135.475 55.2895 135.006 54.0708 134.713L53.1509 134.496C52.3423 134.303 51.9966 133.992 51.9966 133.494C51.9966 132.885 52.5649 132.445 53.397 132.445C54.2407 132.445 54.7915 132.908 54.8911 133.67H55.6352C55.5649 132.562 54.6977 131.807 53.397 131.807C52.1255 131.807 51.229 132.527 51.229 133.535Z" fill="white"/> -->
<!-- <path d="M72.3379 133.963H73.3574C74.7051 133.963 75.5371 134.602 75.5312 135.709C75.5254 136.711 74.6758 137.432 73.4512 137.432C72.2383 137.432 71.3477 136.775 71.3008 135.809H70.5273C70.5801 137.162 71.7637 138.135 73.4512 138.135C75.0977 138.135 76.3457 137.115 76.3457 135.686C76.3457 134.484 75.4961 133.699 74.2363 133.6V133.576C75.3203 133.359 76.041 132.621 76.041 131.572C76.041 130.365 75.0332 129.41 73.4219 129.41C71.9043 129.41 70.8027 130.324 70.7031 131.684H71.4766C71.541 130.729 72.3555 130.113 73.4219 130.113C74.5645 130.113 75.2324 130.758 75.2324 131.672C75.2324 132.609 74.4531 133.277 73.3223 133.277H72.3379V133.963ZM83.7209 134.947V134.221H79.8771V134.947H83.7209ZM86.8752 138H87.6487V129.545H86.8635C86.6116 129.697 84.8186 130.963 84.5842 131.109V131.924C84.8303 131.771 86.6643 130.518 86.8518 130.4H86.8752V138ZM91.8577 138H92.6312V129.545H91.846C91.5941 129.697 89.8011 130.963 89.5667 131.109V131.924C89.8128 131.771 91.6468 130.518 91.8343 130.4H91.8577V138ZM97.0473 138H97.8208V134.256C97.8208 133.219 98.4653 132.498 99.3618 132.498C100.194 132.498 100.756 133.066 100.756 133.939V138H101.536V134.162C101.536 133.189 102.157 132.498 103.059 132.498C103.944 132.498 104.471 133.066 104.471 134.01V138H105.245V133.834C105.245 132.604 104.465 131.807 103.276 131.807C102.356 131.807 101.641 132.34 101.354 133.09H101.336C101.108 132.322 100.463 131.807 99.5727 131.807C98.688 131.807 98.061 132.316 97.7973 133.031H97.7798V131.906H97.0473V138ZM106.524 138H107.297V131.906H106.524V138ZM106.911 130.641C107.198 130.641 107.432 130.412 107.432 130.125C107.432 129.838 107.198 129.609 106.911 129.609C106.624 129.609 106.389 129.838 106.389 130.125C106.389 130.412 106.624 130.641 106.911 130.641ZM108.606 138H109.38V134.391C109.38 133.26 110.089 132.498 111.143 132.498C112.163 132.498 112.749 133.107 112.749 134.174V138H113.522V134.051C113.522 132.668 112.702 131.807 111.366 131.807C110.381 131.807 109.667 132.293 109.356 133.031H109.339V131.906H108.606V138Z" fill="white"/> -->
<!-- <path opacity="0.8" d="M21.0938 67.7266V79H24.8828C28.2344 79 30.2031 76.9141 30.2031 73.3594C30.2031 69.8125 28.2266 67.7266 24.8828 67.7266H21.0938ZM22.5 68.9922H24.7891C27.3516 68.9922 28.7656 70.5547 28.7656 73.375C28.7656 76.1719 27.3438 77.7344 24.7891 77.7344H22.5V68.9922ZM34.3419 77.9844C33.3653 77.9844 32.7169 77.4766 32.7169 76.7031C32.7169 75.9375 33.3419 75.4531 34.4356 75.3828L36.6075 75.25V75.9141C36.6075 77.0859 35.6231 77.9844 34.3419 77.9844ZM34.0372 79.1406C35.1309 79.1406 36.1622 78.5312 36.6466 77.6016H36.6778V79H37.9669V73.3828C37.9669 71.7656 36.7638 70.7344 34.8575 70.7344C32.9356 70.7344 31.7325 71.8125 31.6388 73.2188H32.9513C33.1231 72.4219 33.7794 71.9297 34.8263 71.9297C35.9513 71.9297 36.6075 72.5234 36.6075 73.5156V74.1953L34.2794 74.3281C32.4044 74.4375 31.3341 75.3125 31.3341 76.7031C31.3341 78.1641 32.42 79.1406 34.0372 79.1406ZM39.6838 79H41.0431V70.875H39.6838V79ZM40.3634 69.4297C40.84 69.4297 41.215 69.0469 41.215 68.5781C41.215 68.1016 40.84 67.7266 40.3634 67.7266C39.8947 67.7266 39.5119 68.1016 39.5119 68.5781C39.5119 69.0469 39.8947 69.4297 40.3634 69.4297ZM42.8694 79H44.2288V67.7266H42.8694V79ZM46.6644 82.0391C48.1331 82.0391 48.805 81.4688 49.5003 79.5703L52.6956 70.875H51.2659L49.0159 77.6406H48.9925L46.7425 70.875H45.2894L48.2894 79.0078L48.1019 79.5781C47.7894 80.5234 47.3675 80.8906 46.6097 80.8906C46.4378 80.8906 46.2269 80.8828 46.0784 80.8516V81.9922C46.2269 82.0234 46.5003 82.0391 46.6644 82.0391ZM61.7388 79.1875C64.2309 79.1875 65.9028 77.9453 66.4184 75.7188H64.9966C64.5903 77.0938 63.4028 77.8906 61.7466 77.8906C59.52 77.8906 58.1059 76.125 58.1059 73.3594C58.1059 70.6172 59.5356 68.8359 61.7388 68.8359C63.3481 68.8359 64.6372 69.8047 64.9966 71.2812H66.4184C66.0591 69.0312 64.1919 67.5391 61.7388 67.5391C58.6528 67.5391 56.6606 69.8203 56.6606 73.3594C56.6606 76.9297 58.6294 79.1875 61.7388 79.1875ZM70.4712 77.9844C69.4947 77.9844 68.8462 77.4766 68.8462 76.7031C68.8462 75.9375 69.4712 75.4531 70.565 75.3828L72.7369 75.25V75.9141C72.7369 77.0859 71.7525 77.9844 70.4712 77.9844ZM70.1666 79.1406C71.2603 79.1406 72.2916 78.5312 72.7759 77.6016H72.8072V79H74.0962V73.3828C74.0962 71.7656 72.8931 70.7344 70.9869 70.7344C69.065 70.7344 67.8619 71.8125 67.7681 73.2188H69.0806C69.2525 72.4219 69.9087 71.9297 70.9556 71.9297C72.0806 71.9297 72.7369 72.5234 72.7369 73.5156V74.1953L70.4087 74.3281C68.5337 74.4375 67.4634 75.3125 67.4634 76.7031C67.4634 78.1641 68.5494 79.1406 70.1666 79.1406ZM75.8131 79H77.1725V67.7266H75.8131V79ZM78.9284 79H80.2878V73.9062C80.2878 72.7812 81.0691 71.9375 82.1472 71.9375C83.155 71.9375 83.8112 72.5781 83.8112 73.5547V79H85.1706V73.8359C85.1706 72.7344 85.9284 71.9375 87.0066 71.9375C88.0769 71.9375 88.6941 72.5938 88.6941 73.7031V79H90.0534V73.3906C90.0534 71.7812 89.0144 70.7344 87.405 70.7344C86.2644 70.7344 85.3112 71.3125 84.8581 72.2812H84.8269C84.4753 71.2969 83.655 70.7344 82.5456 70.7344C81.4519 70.7344 80.6237 71.3125 80.2409 72.1719H80.2097V70.875H78.9284V79Z" fill="white"/> -->
<!-- <path d="M38.375 45V25.2715H34.8613V33.4746H25.2637V25.2715H21.7363V45H25.2637V36.4414H34.8613V45H38.375ZM47.4551 42.6621C45.9785 42.6621 44.9941 41.9102 44.9941 40.7207C44.9941 39.5723 45.9375 38.834 47.5781 38.7246L50.9277 38.5195V39.627C50.9277 41.377 49.3828 42.6621 47.4551 42.6621ZM46.4297 45.2324C48.2891 45.2324 50.1074 44.2617 50.9414 42.6895H51.0098V45H54.291V35.0195C54.291 32.1074 51.9531 30.207 48.3574 30.207C44.666 30.207 42.3555 32.1484 42.2051 34.8555H45.3633C45.582 33.6523 46.6074 32.873 48.2207 32.873C49.9023 32.873 50.9277 33.748 50.9277 35.2656V36.3047L47.0996 36.5234C43.5723 36.7422 41.5898 38.2871 41.5898 40.8574C41.5898 43.4688 43.627 45.2324 46.4297 45.2324ZM65.9961 30.2617C63.8906 30.2617 62.25 31.3281 61.4297 33.0098H61.3613V30.5078H58.0391V49.7715H61.4434V42.5938H61.5117C62.3047 44.2207 63.9453 45.2324 66.0508 45.2324C69.6875 45.2324 72.0117 42.375 72.0117 37.7539C72.0117 33.1191 69.6738 30.2617 65.9961 30.2617ZM64.957 42.4434C62.8379 42.4434 61.4297 40.5977 61.416 37.7539C61.4297 34.9375 62.8379 33.0645 64.957 33.0645C67.1582 33.0645 68.5254 34.8965 68.5254 37.7539C68.5254 40.625 67.1582 42.4434 64.957 42.4434ZM83.1562 30.2617C81.0508 30.2617 79.4102 31.3281 78.5898 33.0098H78.5215V30.5078H75.1992V49.7715H78.6035V42.5938H78.6719C79.4648 44.2207 81.1055 45.2324 83.2109 45.2324C86.8477 45.2324 89.1719 42.375 89.1719 37.7539C89.1719 33.1191 86.834 30.2617 83.1562 30.2617ZM82.1172 42.4434C79.998 42.4434 78.5898 40.5977 78.5762 37.7539C78.5898 34.9375 79.998 33.0645 82.1172 33.0645C84.3184 33.0645 85.6855 34.8965 85.6855 37.7539C85.6855 40.625 84.3184 42.4434 82.1172 42.4434ZM92.4414 45H95.8457V30.5078H92.4414V45ZM94.123 28.3203C95.1758 28.3203 95.9961 27.4863 95.9961 26.4746C95.9961 25.4492 95.1758 24.6289 94.123 24.6289C93.0977 24.6289 92.2637 25.4492 92.2637 26.4746C92.2637 27.4863 93.0977 28.3203 94.123 28.3203ZM99.7031 45H103.107V36.6055C103.107 34.5273 104.352 33.1191 106.307 33.1191C108.248 33.1191 109.205 34.2676 109.205 36.3184V45H112.609V35.6348C112.609 32.2852 110.791 30.2344 107.592 30.2344C105.363 30.2344 103.818 31.2734 103.039 32.9961H102.971V30.5078H99.7031V45ZM122.592 32.8457C124.547 32.8457 125.859 34.2812 125.928 36.332H119.16C119.297 34.3086 120.678 32.8457 122.592 32.8457ZM125.941 40.666C125.572 41.8691 124.369 42.6621 122.783 42.6621C120.555 42.6621 119.133 41.1035 119.133 38.7793V38.5742H129.264V37.4668C129.264 33.0645 126.693 30.207 122.578 30.207C118.395 30.207 115.742 33.2285 115.742 37.8086C115.742 42.4297 118.367 45.2871 122.715 45.2871C126.146 45.2871 128.689 43.4004 129.127 40.666H125.941ZM132.205 34.6641C132.205 36.8105 133.6 38.1777 136.375 38.793L138.781 39.3262C140.299 39.668 140.818 40.1602 140.818 41.0352C140.818 42.1152 139.793 42.7988 138.139 42.7988C136.416 42.7988 135.445 42.0879 135.186 40.6797H131.836C132.109 43.4824 134.352 45.2871 138.139 45.2871C141.693 45.2871 144.209 43.4414 144.209 40.707C144.209 38.6016 143.047 37.4395 140.039 36.7695L137.633 36.2363C136.115 35.8945 135.514 35.3203 135.514 34.4863C135.514 33.4199 136.512 32.709 138.016 32.709C139.588 32.709 140.559 33.543 140.695 34.8555H143.867C143.785 32.1074 141.543 30.207 138.016 30.207C134.516 30.207 132.205 32.0117 132.205 34.6641ZM147.123 34.6641C147.123 36.8105 148.518 38.1777 151.293 38.793L153.699 39.3262C155.217 39.668 155.736 40.1602 155.736 41.0352C155.736 42.1152 154.711 42.7988 153.057 42.7988C151.334 42.7988 150.363 42.0879 150.104 40.6797H146.754C147.027 43.4824 149.27 45.2871 153.057 45.2871C156.611 45.2871 159.127 43.4414 159.127 40.707C159.127 38.6016 157.965 37.4395 154.957 36.7695L152.551 36.2363C151.033 35.8945 150.432 35.3203 150.432 34.4863C150.432 33.4199 151.43 32.709 152.934 32.709C154.506 32.709 155.477 33.543 155.613 34.8555H158.785C158.703 32.1074 156.461 30.207 152.934 30.207C149.434 30.207 147.123 32.0117 147.123 34.6641Z" fill="white"/> -->
</g>
</svg>
